<mxfile host="app.diagrams.net" agent="Mozilla/5.0 (Macintosh; Intel Mac OS X 10_15_7) AppleWebKit/605.1.15 (KHTML, like Gecko) Version/18.0 Safari/605.1.15" version="26.0.11">
  <diagram name="Page-1" id="5MqjxUeLmsRFRtrz50fC">
    <mxGraphModel dx="1594" dy="384" grid="0" gridSize="10" guides="1" tooltips="1" connect="1" arrows="1" fold="1" page="1" pageScale="1" pageWidth="850" pageHeight="1100" math="0" shadow="0" adaptiveColors="simple">
      <root>
        <mxCell id="0" />
        <mxCell id="1" parent="0" />
        <mxCell id="aQXZlvpjPt8ZV1MpC3ru-12" value="" style="group;labelBackgroundColor=none;rounded=1;" vertex="1" connectable="0" parent="1">
          <mxGeometry x="-840.5" y="30" width="135" height="96" as="geometry" />
        </mxCell>
        <mxCell id="aQXZlvpjPt8ZV1MpC3ru-1" value="Task 1&amp;nbsp;" style="rounded=1;whiteSpace=wrap;html=1;labelBackgroundColor=none;" vertex="1" parent="aQXZlvpjPt8ZV1MpC3ru-12">
          <mxGeometry width="135" height="96" as="geometry" />
        </mxCell>
        <mxCell id="aQXZlvpjPt8ZV1MpC3ru-3" value="" style="endArrow=none;html=1;rounded=1;fontSize=12;startSize=8;endSize=8;curved=1;entryX=1;entryY=0.25;entryDx=0;entryDy=0;exitX=0;exitY=0.25;exitDx=0;exitDy=0;labelBackgroundColor=none;fontColor=default;" edge="1" parent="aQXZlvpjPt8ZV1MpC3ru-12" source="aQXZlvpjPt8ZV1MpC3ru-1" target="aQXZlvpjPt8ZV1MpC3ru-1">
          <mxGeometry width="50" height="50" relative="1" as="geometry">
            <mxPoint x="77.75951634572326" y="112.9846153846154" as="sourcePoint" />
            <mxPoint x="110.70846394984326" y="76.06153846153846" as="targetPoint" />
          </mxGeometry>
        </mxCell>
        <mxCell id="aQXZlvpjPt8ZV1MpC3ru-4" value="" style="endArrow=none;html=1;rounded=1;fontSize=12;startSize=8;endSize=8;curved=1;entryX=1;entryY=0.75;entryDx=0;entryDy=0;exitX=0;exitY=0.75;exitDx=0;exitDy=0;labelBackgroundColor=none;fontColor=default;" edge="1" parent="aQXZlvpjPt8ZV1MpC3ru-12" source="aQXZlvpjPt8ZV1MpC3ru-1" target="aQXZlvpjPt8ZV1MpC3ru-1">
          <mxGeometry width="50" height="50" relative="1" as="geometry">
            <mxPoint x="-1.3179579041648009" y="65.72307692307693" as="sourcePoint" />
            <mxPoint x="132.4547693685625" y="65.72307692307693" as="targetPoint" />
          </mxGeometry>
        </mxCell>
        <mxCell id="aQXZlvpjPt8ZV1MpC3ru-5" style="edgeStyle=none;curved=1;rounded=1;orthogonalLoop=1;jettySize=auto;html=1;exitX=0.5;exitY=1;exitDx=0;exitDy=0;fontSize=12;startSize=8;endSize=8;labelBackgroundColor=none;fontColor=default;" edge="1" parent="aQXZlvpjPt8ZV1MpC3ru-12" source="aQXZlvpjPt8ZV1MpC3ru-1" target="aQXZlvpjPt8ZV1MpC3ru-1">
          <mxGeometry relative="1" as="geometry" />
        </mxCell>
        <mxCell id="aQXZlvpjPt8ZV1MpC3ru-6" style="edgeStyle=none;curved=1;rounded=1;orthogonalLoop=1;jettySize=auto;html=1;exitX=0.5;exitY=1;exitDx=0;exitDy=0;fontSize=12;startSize=8;endSize=8;labelBackgroundColor=none;fontColor=default;" edge="1" parent="aQXZlvpjPt8ZV1MpC3ru-12" source="aQXZlvpjPt8ZV1MpC3ru-1" target="aQXZlvpjPt8ZV1MpC3ru-1">
          <mxGeometry relative="1" as="geometry" />
        </mxCell>
        <mxCell id="aQXZlvpjPt8ZV1MpC3ru-7" value="" style="endArrow=none;html=1;rounded=1;fontSize=12;startSize=8;endSize=8;curved=1;exitX=0.25;exitY=0;exitDx=0;exitDy=0;labelBackgroundColor=none;fontColor=default;" edge="1" parent="aQXZlvpjPt8ZV1MpC3ru-12" source="aQXZlvpjPt8ZV1MpC3ru-1">
          <mxGeometry width="50" height="50" relative="1" as="geometry">
            <mxPoint x="77.75951634572326" y="112.9846153846154" as="sourcePoint" />
            <mxPoint x="33.60792655620242" y="25.107692307692307" as="targetPoint" />
          </mxGeometry>
        </mxCell>
        <mxCell id="aQXZlvpjPt8ZV1MpC3ru-9" value="" style="endArrow=none;html=1;rounded=1;fontSize=12;startSize=8;endSize=8;curved=1;exitX=0.75;exitY=0;exitDx=0;exitDy=0;labelBackgroundColor=none;fontColor=default;" edge="1" parent="aQXZlvpjPt8ZV1MpC3ru-12" source="aQXZlvpjPt8ZV1MpC3ru-1">
          <mxGeometry width="50" height="50" relative="1" as="geometry">
            <mxPoint x="40.19771607702643" y="7.384615384615385" as="sourcePoint" />
            <mxPoint x="100.16480071652487" y="23.630769230769232" as="targetPoint" />
          </mxGeometry>
        </mxCell>
        <mxCell id="aQXZlvpjPt8ZV1MpC3ru-10" value="" style="endArrow=none;html=1;rounded=1;fontSize=12;startSize=8;endSize=8;curved=1;exitX=0.25;exitY=1;exitDx=0;exitDy=0;labelBackgroundColor=none;fontColor=default;" edge="1" parent="aQXZlvpjPt8ZV1MpC3ru-12" source="aQXZlvpjPt8ZV1MpC3ru-1">
          <mxGeometry width="50" height="50" relative="1" as="geometry">
            <mxPoint x="40.19771607702643" y="7.384615384615385" as="sourcePoint" />
            <mxPoint x="33.60792655620242" y="72.36923076923077" as="targetPoint" />
          </mxGeometry>
        </mxCell>
        <mxCell id="aQXZlvpjPt8ZV1MpC3ru-11" value="" style="endArrow=none;html=1;rounded=1;fontSize=12;startSize=8;endSize=8;curved=1;entryX=0.75;entryY=1;entryDx=0;entryDy=0;labelBackgroundColor=none;fontColor=default;" edge="1" parent="aQXZlvpjPt8ZV1MpC3ru-12" target="aQXZlvpjPt8ZV1MpC3ru-1">
          <mxGeometry width="50" height="50" relative="1" as="geometry">
            <mxPoint x="100.16480071652487" y="72.36923076923077" as="sourcePoint" />
            <mxPoint x="40.19771607702643" y="79.75384615384617" as="targetPoint" />
          </mxGeometry>
        </mxCell>
        <mxCell id="OHJZcfKmMhG8Tj6CGPZ6-1" value="5" style="text;strokeColor=none;fillColor=none;html=1;align=center;verticalAlign=middle;whiteSpace=wrap;rounded=1;fontSize=16;labelBackgroundColor=none;" vertex="1" parent="aQXZlvpjPt8ZV1MpC3ru-12">
          <mxGeometry x="41.9597684923772" width="49.8531902879729" height="24.615384615384617" as="geometry" />
        </mxCell>
        <mxCell id="OHJZcfKmMhG8Tj6CGPZ6-46" value="0" style="text;strokeColor=none;fillColor=none;html=1;align=center;verticalAlign=middle;whiteSpace=wrap;rounded=1;fontSize=16;labelBackgroundColor=none;" vertex="1" parent="aQXZlvpjPt8ZV1MpC3ru-12">
          <mxGeometry x="-5.816205533596839" width="49.8531902879729" height="24.615384615384617" as="geometry" />
        </mxCell>
        <mxCell id="OHJZcfKmMhG8Tj6CGPZ6-59" value="5" style="text;strokeColor=none;fillColor=none;html=1;align=center;verticalAlign=middle;whiteSpace=wrap;rounded=1;fontSize=16;labelBackgroundColor=none;" vertex="1" parent="aQXZlvpjPt8ZV1MpC3ru-12">
          <mxGeometry x="91.8129587803501" width="49.8531902879729" height="24.615384615384617" as="geometry" />
        </mxCell>
        <mxCell id="OHJZcfKmMhG8Tj6CGPZ6-60" value="0" style="text;strokeColor=none;fillColor=none;html=1;align=center;verticalAlign=middle;whiteSpace=wrap;rounded=1;fontSize=16;labelBackgroundColor=none;" vertex="1" parent="aQXZlvpjPt8ZV1MpC3ru-12">
          <mxGeometry x="-5.816205533596839" y="71.38461538461539" width="49.8531902879729" height="24.615384615384617" as="geometry" />
        </mxCell>
        <mxCell id="OHJZcfKmMhG8Tj6CGPZ6-61" value="0" style="text;strokeColor=none;fillColor=none;html=1;align=center;verticalAlign=middle;whiteSpace=wrap;rounded=1;fontSize=16;labelBackgroundColor=none;" vertex="1" parent="aQXZlvpjPt8ZV1MpC3ru-12">
          <mxGeometry x="41.9597684923772" y="73.02564102564102" width="49.8531902879729" height="24.615384615384617" as="geometry" />
        </mxCell>
        <mxCell id="OHJZcfKmMhG8Tj6CGPZ6-77" value="5" style="text;strokeColor=none;fillColor=none;html=1;align=center;verticalAlign=middle;whiteSpace=wrap;rounded=1;fontSize=16;labelBackgroundColor=none;" vertex="1" parent="aQXZlvpjPt8ZV1MpC3ru-12">
          <mxGeometry x="91.8129587803501" y="73.02564102564102" width="49.8531902879729" height="24.615384615384617" as="geometry" />
        </mxCell>
        <mxCell id="aQXZlvpjPt8ZV1MpC3ru-23" value="" style="group;labelBackgroundColor=none;rounded=1;" vertex="1" connectable="0" parent="1">
          <mxGeometry x="-677" y="283" width="147" height="93" as="geometry" />
        </mxCell>
        <mxCell id="aQXZlvpjPt8ZV1MpC3ru-24" value="Task 3" style="rounded=1;whiteSpace=wrap;html=1;labelBackgroundColor=none;" vertex="1" parent="aQXZlvpjPt8ZV1MpC3ru-23">
          <mxGeometry width="147" height="93" as="geometry" />
        </mxCell>
        <mxCell id="aQXZlvpjPt8ZV1MpC3ru-25" value="" style="endArrow=none;html=1;rounded=1;fontSize=12;startSize=8;endSize=8;curved=1;entryX=1;entryY=0.25;entryDx=0;entryDy=0;exitX=0;exitY=0.25;exitDx=0;exitDy=0;labelBackgroundColor=none;fontColor=default;" edge="1" parent="aQXZlvpjPt8ZV1MpC3ru-23" source="aQXZlvpjPt8ZV1MpC3ru-24" target="aQXZlvpjPt8ZV1MpC3ru-24">
          <mxGeometry width="50" height="50" relative="1" as="geometry">
            <mxPoint x="85.44827586206895" y="109.45384615384617" as="sourcePoint" />
            <mxPoint x="121.65517241379308" y="73.6846153846154" as="targetPoint" />
          </mxGeometry>
        </mxCell>
        <mxCell id="aQXZlvpjPt8ZV1MpC3ru-26" value="" style="endArrow=none;html=1;rounded=1;fontSize=12;startSize=8;endSize=8;curved=1;entryX=1;entryY=0.75;entryDx=0;entryDy=0;exitX=0;exitY=0.75;exitDx=0;exitDy=0;labelBackgroundColor=none;fontColor=default;" edge="1" parent="aQXZlvpjPt8ZV1MpC3ru-23" source="aQXZlvpjPt8ZV1MpC3ru-24" target="aQXZlvpjPt8ZV1MpC3ru-24">
          <mxGeometry width="50" height="50" relative="1" as="geometry">
            <mxPoint x="-1.4482758620689653" y="63.66923076923078" as="sourcePoint" />
            <mxPoint x="145.55172413793102" y="63.66923076923078" as="targetPoint" />
          </mxGeometry>
        </mxCell>
        <mxCell id="aQXZlvpjPt8ZV1MpC3ru-27" style="edgeStyle=none;curved=1;rounded=1;orthogonalLoop=1;jettySize=auto;html=1;exitX=0.5;exitY=1;exitDx=0;exitDy=0;fontSize=12;startSize=8;endSize=8;labelBackgroundColor=none;fontColor=default;" edge="1" parent="aQXZlvpjPt8ZV1MpC3ru-23" source="aQXZlvpjPt8ZV1MpC3ru-24" target="aQXZlvpjPt8ZV1MpC3ru-24">
          <mxGeometry relative="1" as="geometry" />
        </mxCell>
        <mxCell id="aQXZlvpjPt8ZV1MpC3ru-28" style="edgeStyle=none;curved=1;rounded=1;orthogonalLoop=1;jettySize=auto;html=1;exitX=0.5;exitY=1;exitDx=0;exitDy=0;fontSize=12;startSize=8;endSize=8;labelBackgroundColor=none;fontColor=default;" edge="1" parent="aQXZlvpjPt8ZV1MpC3ru-23" source="aQXZlvpjPt8ZV1MpC3ru-24" target="aQXZlvpjPt8ZV1MpC3ru-24">
          <mxGeometry relative="1" as="geometry" />
        </mxCell>
        <mxCell id="aQXZlvpjPt8ZV1MpC3ru-29" value="" style="endArrow=none;html=1;rounded=1;fontSize=12;startSize=8;endSize=8;curved=1;exitX=0.25;exitY=0;exitDx=0;exitDy=0;labelBackgroundColor=none;fontColor=default;" edge="1" parent="aQXZlvpjPt8ZV1MpC3ru-23" source="aQXZlvpjPt8ZV1MpC3ru-24">
          <mxGeometry width="50" height="50" relative="1" as="geometry">
            <mxPoint x="85.44827586206895" y="109.45384615384617" as="sourcePoint" />
            <mxPoint x="36.93103448275861" y="24.32307692307693" as="targetPoint" />
          </mxGeometry>
        </mxCell>
        <mxCell id="aQXZlvpjPt8ZV1MpC3ru-30" value="" style="endArrow=none;html=1;rounded=1;fontSize=12;startSize=8;endSize=8;curved=1;exitX=0.75;exitY=0;exitDx=0;exitDy=0;labelBackgroundColor=none;fontColor=default;" edge="1" parent="aQXZlvpjPt8ZV1MpC3ru-23" source="aQXZlvpjPt8ZV1MpC3ru-24">
          <mxGeometry width="50" height="50" relative="1" as="geometry">
            <mxPoint x="44.17241379310344" y="7.153846153846155" as="sourcePoint" />
            <mxPoint x="110.06896551724137" y="22.892307692307696" as="targetPoint" />
          </mxGeometry>
        </mxCell>
        <mxCell id="aQXZlvpjPt8ZV1MpC3ru-31" value="" style="endArrow=none;html=1;rounded=1;fontSize=12;startSize=8;endSize=8;curved=1;exitX=0.25;exitY=1;exitDx=0;exitDy=0;labelBackgroundColor=none;fontColor=default;" edge="1" parent="aQXZlvpjPt8ZV1MpC3ru-23" source="aQXZlvpjPt8ZV1MpC3ru-24">
          <mxGeometry width="50" height="50" relative="1" as="geometry">
            <mxPoint x="44.17241379310344" y="7.153846153846155" as="sourcePoint" />
            <mxPoint x="36.93103448275861" y="70.10769230769232" as="targetPoint" />
          </mxGeometry>
        </mxCell>
        <mxCell id="aQXZlvpjPt8ZV1MpC3ru-32" value="" style="endArrow=none;html=1;rounded=1;fontSize=12;startSize=8;endSize=8;curved=1;entryX=0.75;entryY=1;entryDx=0;entryDy=0;labelBackgroundColor=none;fontColor=default;" edge="1" parent="aQXZlvpjPt8ZV1MpC3ru-23" target="aQXZlvpjPt8ZV1MpC3ru-24">
          <mxGeometry width="50" height="50" relative="1" as="geometry">
            <mxPoint x="110.06896551724137" y="70.10769230769232" as="sourcePoint" />
            <mxPoint x="44.17241379310344" y="77.26153846153848" as="targetPoint" />
          </mxGeometry>
        </mxCell>
        <mxCell id="OHJZcfKmMhG8Tj6CGPZ6-25" value="2" style="text;strokeColor=none;fillColor=none;html=1;align=center;verticalAlign=middle;whiteSpace=wrap;rounded=1;fontSize=16;labelBackgroundColor=none;" vertex="1" parent="aQXZlvpjPt8ZV1MpC3ru-23">
          <mxGeometry x="44.27710843373493" width="53.132530120481924" height="25.833333333333336" as="geometry" />
        </mxCell>
        <mxCell id="OHJZcfKmMhG8Tj6CGPZ6-83" value="6" style="text;strokeColor=none;fillColor=none;html=1;align=center;verticalAlign=middle;whiteSpace=wrap;rounded=1;fontSize=16;labelBackgroundColor=none;" vertex="1" parent="aQXZlvpjPt8ZV1MpC3ru-23">
          <mxGeometry x="-5.313253012048191" width="53.132530120481924" height="25.833333333333336" as="geometry" />
        </mxCell>
        <mxCell id="OHJZcfKmMhG8Tj6CGPZ6-84" value="8" style="text;strokeColor=none;fillColor=none;html=1;align=center;verticalAlign=middle;whiteSpace=wrap;rounded=1;fontSize=16;labelBackgroundColor=none;" vertex="1" parent="aQXZlvpjPt8ZV1MpC3ru-23">
          <mxGeometry x="105.37951807228914" width="53.132530120481924" height="25.833333333333336" as="geometry" />
        </mxCell>
        <mxCell id="OHJZcfKmMhG8Tj6CGPZ6-85" value="14" style="text;strokeColor=none;fillColor=none;html=1;align=center;verticalAlign=middle;whiteSpace=wrap;rounded=1;fontSize=16;labelBackgroundColor=none;" vertex="1" parent="aQXZlvpjPt8ZV1MpC3ru-23">
          <mxGeometry x="-1.7710843373493974" y="68.88888888888889" width="53.132530120481924" height="25.833333333333336" as="geometry" />
        </mxCell>
        <mxCell id="OHJZcfKmMhG8Tj6CGPZ6-86" value="16" style="text;strokeColor=none;fillColor=none;html=1;align=center;verticalAlign=middle;whiteSpace=wrap;rounded=1;fontSize=16;labelBackgroundColor=none;" vertex="1" parent="aQXZlvpjPt8ZV1MpC3ru-23">
          <mxGeometry x="105.37951807228914" y="68.88888888888889" width="53.132530120481924" height="25.833333333333336" as="geometry" />
        </mxCell>
        <mxCell id="OHJZcfKmMhG8Tj6CGPZ6-87" value="8" style="text;strokeColor=none;fillColor=none;html=1;align=center;verticalAlign=middle;whiteSpace=wrap;rounded=1;fontSize=16;labelBackgroundColor=none;" vertex="1" parent="aQXZlvpjPt8ZV1MpC3ru-23">
          <mxGeometry x="46.93373493975903" y="68.88888888888889" width="53.132530120481924" height="25.833333333333336" as="geometry" />
        </mxCell>
        <mxCell id="aQXZlvpjPt8ZV1MpC3ru-33" value="" style="group;labelBackgroundColor=none;rounded=1;" vertex="1" connectable="0" parent="1">
          <mxGeometry x="-840" y="155" width="140" height="96" as="geometry" />
        </mxCell>
        <mxCell id="aQXZlvpjPt8ZV1MpC3ru-34" value="Task 4&amp;nbsp;" style="rounded=1;whiteSpace=wrap;html=1;labelBackgroundColor=none;" vertex="1" parent="aQXZlvpjPt8ZV1MpC3ru-33">
          <mxGeometry width="135.97701149425288" height="93.33333333333333" as="geometry" />
        </mxCell>
        <mxCell id="aQXZlvpjPt8ZV1MpC3ru-35" value="" style="endArrow=none;html=1;rounded=1;fontSize=12;startSize=8;endSize=8;curved=1;entryX=1;entryY=0.25;entryDx=0;entryDy=0;exitX=0;exitY=0.25;exitDx=0;exitDy=0;labelBackgroundColor=none;fontColor=default;" edge="1" parent="aQXZlvpjPt8ZV1MpC3ru-33" source="aQXZlvpjPt8ZV1MpC3ru-34" target="aQXZlvpjPt8ZV1MpC3ru-34">
          <mxGeometry width="50" height="50" relative="1" as="geometry">
            <mxPoint x="78.5731272294887" y="112.98461538461538" as="sourcePoint" />
            <mxPoint x="111.86682520808561" y="76.06153846153846" as="targetPoint" />
          </mxGeometry>
        </mxCell>
        <mxCell id="aQXZlvpjPt8ZV1MpC3ru-36" value="" style="endArrow=none;html=1;rounded=1;fontSize=12;startSize=8;endSize=8;curved=1;entryX=1;entryY=0.75;entryDx=0;entryDy=0;exitX=0;exitY=0.75;exitDx=0;exitDy=0;labelBackgroundColor=none;fontColor=default;" edge="1" parent="aQXZlvpjPt8ZV1MpC3ru-33" source="aQXZlvpjPt8ZV1MpC3ru-34" target="aQXZlvpjPt8ZV1MpC3ru-34">
          <mxGeometry width="50" height="50" relative="1" as="geometry">
            <mxPoint x="-1.3317479191438761" y="65.72307692307692" as="sourcePoint" />
            <mxPoint x="133.84066587395958" y="65.72307692307692" as="targetPoint" />
          </mxGeometry>
        </mxCell>
        <mxCell id="aQXZlvpjPt8ZV1MpC3ru-37" style="edgeStyle=none;curved=1;rounded=1;orthogonalLoop=1;jettySize=auto;html=1;exitX=0.5;exitY=1;exitDx=0;exitDy=0;fontSize=12;startSize=8;endSize=8;labelBackgroundColor=none;fontColor=default;" edge="1" parent="aQXZlvpjPt8ZV1MpC3ru-33" source="aQXZlvpjPt8ZV1MpC3ru-34" target="aQXZlvpjPt8ZV1MpC3ru-34">
          <mxGeometry relative="1" as="geometry" />
        </mxCell>
        <mxCell id="aQXZlvpjPt8ZV1MpC3ru-38" style="edgeStyle=none;curved=1;rounded=1;orthogonalLoop=1;jettySize=auto;html=1;exitX=0.5;exitY=1;exitDx=0;exitDy=0;fontSize=12;startSize=8;endSize=8;labelBackgroundColor=none;fontColor=default;" edge="1" parent="aQXZlvpjPt8ZV1MpC3ru-33" source="aQXZlvpjPt8ZV1MpC3ru-34" target="aQXZlvpjPt8ZV1MpC3ru-34">
          <mxGeometry relative="1" as="geometry" />
        </mxCell>
        <mxCell id="aQXZlvpjPt8ZV1MpC3ru-39" value="" style="endArrow=none;html=1;rounded=1;fontSize=12;startSize=8;endSize=8;curved=1;exitX=0.25;exitY=0;exitDx=0;exitDy=0;labelBackgroundColor=none;fontColor=default;" edge="1" parent="aQXZlvpjPt8ZV1MpC3ru-33" source="aQXZlvpjPt8ZV1MpC3ru-34">
          <mxGeometry width="50" height="50" relative="1" as="geometry">
            <mxPoint x="78.5731272294887" y="112.98461538461538" as="sourcePoint" />
            <mxPoint x="33.95957193816884" y="25.10769230769231" as="targetPoint" />
          </mxGeometry>
        </mxCell>
        <mxCell id="aQXZlvpjPt8ZV1MpC3ru-40" value="" style="endArrow=none;html=1;rounded=1;fontSize=12;startSize=8;endSize=8;curved=1;exitX=0.75;exitY=0;exitDx=0;exitDy=0;labelBackgroundColor=none;fontColor=default;" edge="1" parent="aQXZlvpjPt8ZV1MpC3ru-33" source="aQXZlvpjPt8ZV1MpC3ru-34">
          <mxGeometry width="50" height="50" relative="1" as="geometry">
            <mxPoint x="40.618311533888225" y="7.384615384615385" as="sourcePoint" />
            <mxPoint x="101.2128418549346" y="23.63076923076923" as="targetPoint" />
          </mxGeometry>
        </mxCell>
        <mxCell id="aQXZlvpjPt8ZV1MpC3ru-41" value="" style="endArrow=none;html=1;rounded=1;fontSize=12;startSize=8;endSize=8;curved=1;exitX=0.25;exitY=1;exitDx=0;exitDy=0;labelBackgroundColor=none;fontColor=default;" edge="1" parent="aQXZlvpjPt8ZV1MpC3ru-33" source="aQXZlvpjPt8ZV1MpC3ru-34">
          <mxGeometry width="50" height="50" relative="1" as="geometry">
            <mxPoint x="40.618311533888225" y="7.384615384615385" as="sourcePoint" />
            <mxPoint x="33.95957193816884" y="72.36923076923077" as="targetPoint" />
          </mxGeometry>
        </mxCell>
        <mxCell id="aQXZlvpjPt8ZV1MpC3ru-42" value="" style="endArrow=none;html=1;rounded=1;fontSize=12;startSize=8;endSize=8;curved=1;entryX=0.75;entryY=1;entryDx=0;entryDy=0;labelBackgroundColor=none;fontColor=default;" edge="1" parent="aQXZlvpjPt8ZV1MpC3ru-33" target="aQXZlvpjPt8ZV1MpC3ru-34">
          <mxGeometry width="50" height="50" relative="1" as="geometry">
            <mxPoint x="101.2128418549346" y="72.36923076923077" as="sourcePoint" />
            <mxPoint x="40.618311533888225" y="79.75384615384615" as="targetPoint" />
          </mxGeometry>
        </mxCell>
        <mxCell id="OHJZcfKmMhG8Tj6CGPZ6-26" value="2" style="text;strokeColor=none;fillColor=none;html=1;align=center;verticalAlign=middle;whiteSpace=wrap;rounded=1;fontSize=16;labelBackgroundColor=none;" vertex="1" parent="aQXZlvpjPt8ZV1MpC3ru-33">
          <mxGeometry x="43.44827586206897" width="48.275862068965516" height="26.666666666666664" as="geometry" />
        </mxCell>
        <mxCell id="OHJZcfKmMhG8Tj6CGPZ6-88" value="6" style="text;strokeColor=none;fillColor=none;html=1;align=center;verticalAlign=middle;whiteSpace=wrap;rounded=1;fontSize=16;labelBackgroundColor=none;" vertex="1" parent="aQXZlvpjPt8ZV1MpC3ru-33">
          <mxGeometry x="-4.827586206896552" width="48.275862068965516" height="26.666666666666664" as="geometry" />
        </mxCell>
        <mxCell id="OHJZcfKmMhG8Tj6CGPZ6-105" value="8" style="text;strokeColor=none;fillColor=none;html=1;align=center;verticalAlign=middle;whiteSpace=wrap;rounded=1;fontSize=16;labelBackgroundColor=none;" vertex="1" parent="aQXZlvpjPt8ZV1MpC3ru-33">
          <mxGeometry x="91.72413793103448" width="48.275862068965516" height="26.666666666666664" as="geometry" />
        </mxCell>
        <mxCell id="OHJZcfKmMhG8Tj6CGPZ6-106" value="6" style="text;strokeColor=none;fillColor=none;html=1;align=center;verticalAlign=middle;whiteSpace=wrap;rounded=1;fontSize=16;labelBackgroundColor=none;" vertex="1" parent="aQXZlvpjPt8ZV1MpC3ru-33">
          <mxGeometry x="-4.827586206896552" y="71.11111111111111" width="48.275862068965516" height="26.666666666666664" as="geometry" />
        </mxCell>
        <mxCell id="OHJZcfKmMhG8Tj6CGPZ6-107" value="8" style="text;strokeColor=none;fillColor=none;html=1;align=center;verticalAlign=middle;whiteSpace=wrap;rounded=1;fontSize=16;labelBackgroundColor=none;" vertex="1" parent="aQXZlvpjPt8ZV1MpC3ru-33">
          <mxGeometry x="95.74712643678161" y="71.11111111111111" width="48.275862068965516" height="26.666666666666664" as="geometry" />
        </mxCell>
        <mxCell id="OHJZcfKmMhG8Tj6CGPZ6-108" value="0" style="text;strokeColor=none;fillColor=none;html=1;align=center;verticalAlign=middle;whiteSpace=wrap;rounded=1;fontSize=16;labelBackgroundColor=none;" vertex="1" parent="aQXZlvpjPt8ZV1MpC3ru-33">
          <mxGeometry x="39.42528735632183" y="71.11111111111111" width="48.275862068965516" height="26.666666666666664" as="geometry" />
        </mxCell>
        <mxCell id="IIMoWA1YYtscb8tn20ki-11" value="" style="group;labelBackgroundColor=none;rounded=1;" vertex="1" connectable="0" parent="1">
          <mxGeometry x="-840.5" y="398" width="136" height="96" as="geometry" />
        </mxCell>
        <mxCell id="IIMoWA1YYtscb8tn20ki-12" value="Task 6&amp;nbsp;" style="rounded=1;whiteSpace=wrap;html=1;labelBackgroundColor=none;" vertex="1" parent="IIMoWA1YYtscb8tn20ki-11">
          <mxGeometry width="136" height="96.00000000000001" as="geometry" />
        </mxCell>
        <mxCell id="IIMoWA1YYtscb8tn20ki-13" value="" style="endArrow=none;html=1;rounded=1;fontSize=12;startSize=8;endSize=8;curved=1;entryX=1;entryY=0.25;entryDx=0;entryDy=0;exitX=0;exitY=0.25;exitDx=0;exitDy=0;labelBackgroundColor=none;fontColor=default;" edge="1" parent="IIMoWA1YYtscb8tn20ki-11" source="IIMoWA1YYtscb8tn20ki-12" target="IIMoWA1YYtscb8tn20ki-12">
          <mxGeometry width="50" height="50" relative="1" as="geometry">
            <mxPoint x="79.05418719211823" y="112.9846153846154" as="sourcePoint" />
            <mxPoint x="112.55172413793105" y="76.06153846153846" as="targetPoint" />
          </mxGeometry>
        </mxCell>
        <mxCell id="IIMoWA1YYtscb8tn20ki-14" value="" style="endArrow=none;html=1;rounded=1;fontSize=12;startSize=8;endSize=8;curved=1;entryX=1;entryY=0.75;entryDx=0;entryDy=0;exitX=0;exitY=0.75;exitDx=0;exitDy=0;labelBackgroundColor=none;fontColor=default;" edge="1" parent="IIMoWA1YYtscb8tn20ki-11" source="IIMoWA1YYtscb8tn20ki-12" target="IIMoWA1YYtscb8tn20ki-12">
          <mxGeometry width="50" height="50" relative="1" as="geometry">
            <mxPoint x="-1.3399014778325125" y="65.72307692307693" as="sourcePoint" />
            <mxPoint x="134.66009852216752" y="65.72307692307693" as="targetPoint" />
          </mxGeometry>
        </mxCell>
        <mxCell id="IIMoWA1YYtscb8tn20ki-15" style="edgeStyle=none;curved=1;rounded=1;orthogonalLoop=1;jettySize=auto;html=1;exitX=0.5;exitY=1;exitDx=0;exitDy=0;fontSize=12;startSize=8;endSize=8;labelBackgroundColor=none;fontColor=default;" edge="1" parent="IIMoWA1YYtscb8tn20ki-11" source="IIMoWA1YYtscb8tn20ki-12" target="IIMoWA1YYtscb8tn20ki-12">
          <mxGeometry relative="1" as="geometry" />
        </mxCell>
        <mxCell id="IIMoWA1YYtscb8tn20ki-16" style="edgeStyle=none;curved=1;rounded=1;orthogonalLoop=1;jettySize=auto;html=1;exitX=0.5;exitY=1;exitDx=0;exitDy=0;fontSize=12;startSize=8;endSize=8;labelBackgroundColor=none;fontColor=default;" edge="1" parent="IIMoWA1YYtscb8tn20ki-11" source="IIMoWA1YYtscb8tn20ki-12" target="IIMoWA1YYtscb8tn20ki-12">
          <mxGeometry relative="1" as="geometry" />
        </mxCell>
        <mxCell id="IIMoWA1YYtscb8tn20ki-17" value="" style="endArrow=none;html=1;rounded=1;fontSize=12;startSize=8;endSize=8;curved=1;exitX=0.25;exitY=0;exitDx=0;exitDy=0;labelBackgroundColor=none;fontColor=default;" edge="1" parent="IIMoWA1YYtscb8tn20ki-11" source="IIMoWA1YYtscb8tn20ki-12">
          <mxGeometry width="50" height="50" relative="1" as="geometry">
            <mxPoint x="79.05418719211823" y="112.9846153846154" as="sourcePoint" />
            <mxPoint x="34.16748768472906" y="25.10769230769231" as="targetPoint" />
          </mxGeometry>
        </mxCell>
        <mxCell id="IIMoWA1YYtscb8tn20ki-18" value="" style="endArrow=none;html=1;rounded=1;fontSize=12;startSize=8;endSize=8;curved=1;exitX=0.75;exitY=0;exitDx=0;exitDy=0;labelBackgroundColor=none;fontColor=default;" edge="1" parent="IIMoWA1YYtscb8tn20ki-11" source="IIMoWA1YYtscb8tn20ki-12">
          <mxGeometry width="50" height="50" relative="1" as="geometry">
            <mxPoint x="40.86699507389162" y="7.384615384615386" as="sourcePoint" />
            <mxPoint x="101.83251231527096" y="23.630769230769232" as="targetPoint" />
          </mxGeometry>
        </mxCell>
        <mxCell id="IIMoWA1YYtscb8tn20ki-19" value="" style="endArrow=none;html=1;rounded=1;fontSize=12;startSize=8;endSize=8;curved=1;exitX=0.25;exitY=1;exitDx=0;exitDy=0;labelBackgroundColor=none;fontColor=default;" edge="1" parent="IIMoWA1YYtscb8tn20ki-11" source="IIMoWA1YYtscb8tn20ki-12">
          <mxGeometry width="50" height="50" relative="1" as="geometry">
            <mxPoint x="40.86699507389162" y="7.384615384615386" as="sourcePoint" />
            <mxPoint x="34.16748768472906" y="72.36923076923078" as="targetPoint" />
          </mxGeometry>
        </mxCell>
        <mxCell id="IIMoWA1YYtscb8tn20ki-20" value="" style="endArrow=none;html=1;rounded=1;fontSize=12;startSize=8;endSize=8;curved=1;entryX=0.75;entryY=1;entryDx=0;entryDy=0;labelBackgroundColor=none;fontColor=default;" edge="1" parent="IIMoWA1YYtscb8tn20ki-11" target="IIMoWA1YYtscb8tn20ki-12">
          <mxGeometry width="50" height="50" relative="1" as="geometry">
            <mxPoint x="101.83251231527096" y="72.36923076923078" as="sourcePoint" />
            <mxPoint x="40.86699507389162" y="79.75384615384617" as="targetPoint" />
          </mxGeometry>
        </mxCell>
        <mxCell id="OHJZcfKmMhG8Tj6CGPZ6-28" value="2" style="text;strokeColor=none;fillColor=none;html=1;align=center;verticalAlign=middle;whiteSpace=wrap;rounded=1;fontSize=16;labelBackgroundColor=none;" vertex="1" parent="IIMoWA1YYtscb8tn20ki-11">
          <mxGeometry x="42.6583850931677" width="50.6832298136646" height="26.666666666666664" as="geometry" />
        </mxCell>
        <mxCell id="OHJZcfKmMhG8Tj6CGPZ6-137" value="11" style="text;strokeColor=none;fillColor=none;html=1;align=center;verticalAlign=middle;whiteSpace=wrap;rounded=1;fontSize=16;labelBackgroundColor=none;" vertex="1" parent="IIMoWA1YYtscb8tn20ki-11">
          <mxGeometry x="-2.53416149068323" width="50.6832298136646" height="26.666666666666664" as="geometry" />
        </mxCell>
        <mxCell id="OHJZcfKmMhG8Tj6CGPZ6-138" value="13" style="text;strokeColor=none;fillColor=none;html=1;align=center;verticalAlign=middle;whiteSpace=wrap;rounded=1;fontSize=16;labelBackgroundColor=none;" vertex="1" parent="IIMoWA1YYtscb8tn20ki-11">
          <mxGeometry x="93.3416149068323" width="50.6832298136646" height="26.666666666666664" as="geometry" />
        </mxCell>
        <mxCell id="OHJZcfKmMhG8Tj6CGPZ6-139" value="11" style="text;strokeColor=none;fillColor=none;html=1;align=center;verticalAlign=middle;whiteSpace=wrap;rounded=1;fontSize=16;labelBackgroundColor=none;" vertex="1" parent="IIMoWA1YYtscb8tn20ki-11">
          <mxGeometry x="-5.913043478260869" y="69.33333333333333" width="50.6832298136646" height="26.666666666666664" as="geometry" />
        </mxCell>
        <mxCell id="OHJZcfKmMhG8Tj6CGPZ6-140" value="13" style="text;strokeColor=none;fillColor=none;html=1;align=center;verticalAlign=middle;whiteSpace=wrap;rounded=1;fontSize=16;labelBackgroundColor=none;" vertex="1" parent="IIMoWA1YYtscb8tn20ki-11">
          <mxGeometry x="96.29813664596273" y="72.8888888888889" width="50.6832298136646" height="26.666666666666664" as="geometry" />
        </mxCell>
        <mxCell id="OHJZcfKmMhG8Tj6CGPZ6-157" value="0" style="text;strokeColor=none;fillColor=none;html=1;align=center;verticalAlign=middle;whiteSpace=wrap;rounded=1;fontSize=16;labelBackgroundColor=none;" vertex="1" parent="IIMoWA1YYtscb8tn20ki-11">
          <mxGeometry x="44.77018633540373" y="69.33333333333333" width="50.6832298136646" height="26.666666666666664" as="geometry" />
        </mxCell>
        <mxCell id="IIMoWA1YYtscb8tn20ki-21" value="" style="group;labelBackgroundColor=none;rounded=1;" vertex="1" connectable="0" parent="1">
          <mxGeometry x="-838" y="512" width="134" height="98" as="geometry" />
        </mxCell>
        <mxCell id="IIMoWA1YYtscb8tn20ki-22" value="Task 7&amp;nbsp;" style="rounded=1;whiteSpace=wrap;html=1;labelBackgroundColor=none;" vertex="1" parent="IIMoWA1YYtscb8tn20ki-21">
          <mxGeometry width="134" height="96.2181818181818" as="geometry" />
        </mxCell>
        <mxCell id="IIMoWA1YYtscb8tn20ki-23" value="" style="endArrow=none;html=1;rounded=1;fontSize=12;startSize=8;endSize=8;curved=1;entryX=1;entryY=0.25;entryDx=0;entryDy=0;exitX=0;exitY=0.25;exitDx=0;exitDy=0;labelBackgroundColor=none;fontColor=default;" edge="1" parent="IIMoWA1YYtscb8tn20ki-21" source="IIMoWA1YYtscb8tn20ki-22" target="IIMoWA1YYtscb8tn20ki-22">
          <mxGeometry width="50" height="50" relative="1" as="geometry">
            <mxPoint x="77.89162561576354" y="113.2413986013986" as="sourcePoint" />
            <mxPoint x="110.89655172413794" y="76.23440559440559" as="targetPoint" />
          </mxGeometry>
        </mxCell>
        <mxCell id="IIMoWA1YYtscb8tn20ki-24" value="" style="endArrow=none;html=1;rounded=1;fontSize=12;startSize=8;endSize=8;curved=1;entryX=1;entryY=0.75;entryDx=0;entryDy=0;exitX=0;exitY=0.75;exitDx=0;exitDy=0;labelBackgroundColor=none;fontColor=default;" edge="1" parent="IIMoWA1YYtscb8tn20ki-21" source="IIMoWA1YYtscb8tn20ki-22" target="IIMoWA1YYtscb8tn20ki-22">
          <mxGeometry width="50" height="50" relative="1" as="geometry">
            <mxPoint x="-1.3201970443349753" y="65.87244755244754" as="sourcePoint" />
            <mxPoint x="132.67980295566502" y="65.87244755244754" as="targetPoint" />
          </mxGeometry>
        </mxCell>
        <mxCell id="IIMoWA1YYtscb8tn20ki-25" style="edgeStyle=none;curved=1;rounded=1;orthogonalLoop=1;jettySize=auto;html=1;exitX=0.5;exitY=1;exitDx=0;exitDy=0;fontSize=12;startSize=8;endSize=8;labelBackgroundColor=none;fontColor=default;" edge="1" parent="IIMoWA1YYtscb8tn20ki-21" source="IIMoWA1YYtscb8tn20ki-22" target="IIMoWA1YYtscb8tn20ki-22">
          <mxGeometry relative="1" as="geometry" />
        </mxCell>
        <mxCell id="IIMoWA1YYtscb8tn20ki-26" style="edgeStyle=none;curved=1;rounded=1;orthogonalLoop=1;jettySize=auto;html=1;exitX=0.5;exitY=1;exitDx=0;exitDy=0;fontSize=12;startSize=8;endSize=8;labelBackgroundColor=none;fontColor=default;" edge="1" parent="IIMoWA1YYtscb8tn20ki-21" source="IIMoWA1YYtscb8tn20ki-22" target="IIMoWA1YYtscb8tn20ki-22">
          <mxGeometry relative="1" as="geometry" />
        </mxCell>
        <mxCell id="IIMoWA1YYtscb8tn20ki-27" value="" style="endArrow=none;html=1;rounded=1;fontSize=12;startSize=8;endSize=8;curved=1;exitX=0.25;exitY=0;exitDx=0;exitDy=0;labelBackgroundColor=none;fontColor=default;" edge="1" parent="IIMoWA1YYtscb8tn20ki-21" source="IIMoWA1YYtscb8tn20ki-22">
          <mxGeometry width="50" height="50" relative="1" as="geometry">
            <mxPoint x="77.89162561576354" y="113.2413986013986" as="sourcePoint" />
            <mxPoint x="33.66502463054187" y="25.164755244755245" as="targetPoint" />
          </mxGeometry>
        </mxCell>
        <mxCell id="IIMoWA1YYtscb8tn20ki-28" value="" style="endArrow=none;html=1;rounded=1;fontSize=12;startSize=8;endSize=8;curved=1;exitX=0.75;exitY=0;exitDx=0;exitDy=0;labelBackgroundColor=none;fontColor=default;" edge="1" parent="IIMoWA1YYtscb8tn20ki-21" source="IIMoWA1YYtscb8tn20ki-22">
          <mxGeometry width="50" height="50" relative="1" as="geometry">
            <mxPoint x="40.26600985221675" y="7.401398601398601" as="sourcePoint" />
            <mxPoint x="100.33497536945814" y="23.684475524475523" as="targetPoint" />
          </mxGeometry>
        </mxCell>
        <mxCell id="IIMoWA1YYtscb8tn20ki-29" value="" style="endArrow=none;html=1;rounded=1;fontSize=12;startSize=8;endSize=8;curved=1;exitX=0.25;exitY=1;exitDx=0;exitDy=0;labelBackgroundColor=none;fontColor=default;" edge="1" parent="IIMoWA1YYtscb8tn20ki-21" source="IIMoWA1YYtscb8tn20ki-22">
          <mxGeometry width="50" height="50" relative="1" as="geometry">
            <mxPoint x="40.26600985221675" y="7.401398601398601" as="sourcePoint" />
            <mxPoint x="33.66502463054187" y="72.5337062937063" as="targetPoint" />
          </mxGeometry>
        </mxCell>
        <mxCell id="IIMoWA1YYtscb8tn20ki-30" value="" style="endArrow=none;html=1;rounded=1;fontSize=12;startSize=8;endSize=8;curved=1;entryX=0.75;entryY=1;entryDx=0;entryDy=0;labelBackgroundColor=none;fontColor=default;" edge="1" parent="IIMoWA1YYtscb8tn20ki-21" target="IIMoWA1YYtscb8tn20ki-22">
          <mxGeometry width="50" height="50" relative="1" as="geometry">
            <mxPoint x="100.33497536945814" y="72.5337062937063" as="sourcePoint" />
            <mxPoint x="40.26600985221675" y="79.93510489510489" as="targetPoint" />
          </mxGeometry>
        </mxCell>
        <mxCell id="OHJZcfKmMhG8Tj6CGPZ6-40" value="3" style="text;strokeColor=none;fillColor=none;html=1;align=center;verticalAlign=middle;whiteSpace=wrap;rounded=1;fontSize=16;labelBackgroundColor=none;" vertex="1" parent="IIMoWA1YYtscb8tn20ki-21">
          <mxGeometry x="42.78313253012048" y="-1.7818181818181817" width="48.43373493975904" height="26.727272727272727" as="geometry" />
        </mxCell>
        <mxCell id="OHJZcfKmMhG8Tj6CGPZ6-177" value="13" style="text;strokeColor=none;fillColor=none;html=1;align=center;verticalAlign=middle;whiteSpace=wrap;rounded=1;fontSize=16;labelBackgroundColor=none;" vertex="1" parent="IIMoWA1YYtscb8tn20ki-21">
          <mxGeometry x="-5.650602409638554" width="48.43373493975904" height="26.727272727272727" as="geometry" />
        </mxCell>
        <mxCell id="OHJZcfKmMhG8Tj6CGPZ6-202" value="16" style="text;strokeColor=none;fillColor=none;html=1;align=center;verticalAlign=middle;whiteSpace=wrap;rounded=1;fontSize=16;labelBackgroundColor=none;" vertex="1" parent="IIMoWA1YYtscb8tn20ki-21">
          <mxGeometry x="91.21686746987952" width="48.43373493975904" height="26.727272727272727" as="geometry" />
        </mxCell>
        <mxCell id="OHJZcfKmMhG8Tj6CGPZ6-203" value="0" style="text;strokeColor=none;fillColor=none;html=1;align=center;verticalAlign=middle;whiteSpace=wrap;rounded=1;fontSize=16;labelBackgroundColor=none;" vertex="1" parent="IIMoWA1YYtscb8tn20ki-21">
          <mxGeometry x="42.78313253012048" y="71.27272727272727" width="48.43373493975904" height="26.727272727272727" as="geometry" />
        </mxCell>
        <mxCell id="OHJZcfKmMhG8Tj6CGPZ6-205" value="13" style="text;strokeColor=none;fillColor=none;html=1;align=center;verticalAlign=middle;whiteSpace=wrap;rounded=1;fontSize=16;labelBackgroundColor=none;" vertex="1" parent="IIMoWA1YYtscb8tn20ki-21">
          <mxGeometry x="-5.650602409638554" y="71.27272727272727" width="48.43373493975904" height="26.727272727272727" as="geometry" />
        </mxCell>
        <mxCell id="OHJZcfKmMhG8Tj6CGPZ6-207" value="16" style="text;strokeColor=none;fillColor=none;html=1;align=center;verticalAlign=middle;whiteSpace=wrap;rounded=1;fontSize=16;labelBackgroundColor=none;" vertex="1" parent="IIMoWA1YYtscb8tn20ki-21">
          <mxGeometry x="95.25301204819277" y="71.27272727272727" width="48.43373493975904" height="26.727272727272727" as="geometry" />
        </mxCell>
        <mxCell id="IIMoWA1YYtscb8tn20ki-31" value="" style="group;labelBackgroundColor=none;rounded=1;" vertex="1" connectable="0" parent="1">
          <mxGeometry x="-510" y="159" width="136" height="94" as="geometry" />
        </mxCell>
        <mxCell id="IIMoWA1YYtscb8tn20ki-32" value="Task 8&amp;nbsp;" style="rounded=1;whiteSpace=wrap;html=1;labelBackgroundColor=none;" vertex="1" parent="IIMoWA1YYtscb8tn20ki-31">
          <mxGeometry width="136" height="84" as="geometry" />
        </mxCell>
        <mxCell id="IIMoWA1YYtscb8tn20ki-33" value="" style="endArrow=none;html=1;rounded=1;fontSize=12;startSize=8;endSize=8;curved=1;entryX=1;entryY=0.25;entryDx=0;entryDy=0;exitX=0;exitY=0.25;exitDx=0;exitDy=0;labelBackgroundColor=none;fontColor=default;" edge="1" parent="IIMoWA1YYtscb8tn20ki-31" source="IIMoWA1YYtscb8tn20ki-32" target="IIMoWA1YYtscb8tn20ki-32">
          <mxGeometry width="50" height="50" relative="1" as="geometry">
            <mxPoint x="79.05418719211822" y="98.86153846153847" as="sourcePoint" />
            <mxPoint x="112.55172413793105" y="66.55384615384615" as="targetPoint" />
          </mxGeometry>
        </mxCell>
        <mxCell id="IIMoWA1YYtscb8tn20ki-34" value="" style="endArrow=none;html=1;rounded=1;fontSize=12;startSize=8;endSize=8;curved=1;entryX=1;entryY=0.75;entryDx=0;entryDy=0;exitX=0;exitY=0.75;exitDx=0;exitDy=0;labelBackgroundColor=none;fontColor=default;" edge="1" parent="IIMoWA1YYtscb8tn20ki-31" source="IIMoWA1YYtscb8tn20ki-32" target="IIMoWA1YYtscb8tn20ki-32">
          <mxGeometry width="50" height="50" relative="1" as="geometry">
            <mxPoint x="-1.3399014778325122" y="57.50769230769231" as="sourcePoint" />
            <mxPoint x="134.6600985221675" y="57.50769230769231" as="targetPoint" />
          </mxGeometry>
        </mxCell>
        <mxCell id="IIMoWA1YYtscb8tn20ki-35" style="edgeStyle=none;curved=1;rounded=1;orthogonalLoop=1;jettySize=auto;html=1;exitX=0.5;exitY=1;exitDx=0;exitDy=0;fontSize=12;startSize=8;endSize=8;labelBackgroundColor=none;fontColor=default;" edge="1" parent="IIMoWA1YYtscb8tn20ki-31" source="IIMoWA1YYtscb8tn20ki-32" target="IIMoWA1YYtscb8tn20ki-32">
          <mxGeometry relative="1" as="geometry" />
        </mxCell>
        <mxCell id="IIMoWA1YYtscb8tn20ki-36" style="edgeStyle=none;curved=1;rounded=1;orthogonalLoop=1;jettySize=auto;html=1;exitX=0.5;exitY=1;exitDx=0;exitDy=0;fontSize=12;startSize=8;endSize=8;labelBackgroundColor=none;fontColor=default;" edge="1" parent="IIMoWA1YYtscb8tn20ki-31" source="IIMoWA1YYtscb8tn20ki-32" target="IIMoWA1YYtscb8tn20ki-32">
          <mxGeometry relative="1" as="geometry" />
        </mxCell>
        <mxCell id="IIMoWA1YYtscb8tn20ki-37" value="" style="endArrow=none;html=1;rounded=1;fontSize=12;startSize=8;endSize=8;curved=1;exitX=0.25;exitY=0;exitDx=0;exitDy=0;labelBackgroundColor=none;fontColor=default;" edge="1" parent="IIMoWA1YYtscb8tn20ki-31" source="IIMoWA1YYtscb8tn20ki-32">
          <mxGeometry width="50" height="50" relative="1" as="geometry">
            <mxPoint x="79.05418719211822" y="98.86153846153847" as="sourcePoint" />
            <mxPoint x="34.16748768472906" y="21.969230769230773" as="targetPoint" />
          </mxGeometry>
        </mxCell>
        <mxCell id="IIMoWA1YYtscb8tn20ki-38" value="" style="endArrow=none;html=1;rounded=1;fontSize=12;startSize=8;endSize=8;curved=1;exitX=0.75;exitY=0;exitDx=0;exitDy=0;labelBackgroundColor=none;fontColor=default;" edge="1" parent="IIMoWA1YYtscb8tn20ki-31" source="IIMoWA1YYtscb8tn20ki-32">
          <mxGeometry width="50" height="50" relative="1" as="geometry">
            <mxPoint x="40.86699507389162" y="6.461538461538463" as="sourcePoint" />
            <mxPoint x="101.83251231527093" y="20.676923076923078" as="targetPoint" />
          </mxGeometry>
        </mxCell>
        <mxCell id="IIMoWA1YYtscb8tn20ki-39" value="" style="endArrow=none;html=1;rounded=1;fontSize=12;startSize=8;endSize=8;curved=1;exitX=0.25;exitY=1;exitDx=0;exitDy=0;labelBackgroundColor=none;fontColor=default;" edge="1" parent="IIMoWA1YYtscb8tn20ki-31" source="IIMoWA1YYtscb8tn20ki-32">
          <mxGeometry width="50" height="50" relative="1" as="geometry">
            <mxPoint x="40.86699507389162" y="6.461538461538463" as="sourcePoint" />
            <mxPoint x="34.16748768472906" y="63.32307692307693" as="targetPoint" />
          </mxGeometry>
        </mxCell>
        <mxCell id="IIMoWA1YYtscb8tn20ki-40" value="" style="endArrow=none;html=1;rounded=1;fontSize=12;startSize=8;endSize=8;curved=1;entryX=0.75;entryY=1;entryDx=0;entryDy=0;labelBackgroundColor=none;fontColor=default;" edge="1" parent="IIMoWA1YYtscb8tn20ki-31" target="IIMoWA1YYtscb8tn20ki-32">
          <mxGeometry width="50" height="50" relative="1" as="geometry">
            <mxPoint x="101.83251231527093" y="63.32307692307693" as="sourcePoint" />
            <mxPoint x="40.86699507389162" y="69.78461538461539" as="targetPoint" />
          </mxGeometry>
        </mxCell>
        <mxCell id="OHJZcfKmMhG8Tj6CGPZ6-41" value="1" style="text;strokeColor=none;fillColor=none;html=1;align=center;verticalAlign=middle;whiteSpace=wrap;rounded=1;fontSize=16;labelBackgroundColor=none;" vertex="1" parent="IIMoWA1YYtscb8tn20ki-31">
          <mxGeometry x="43.714285714285715" width="48.57142857142857" height="23.333333333333332" as="geometry" />
        </mxCell>
        <mxCell id="OHJZcfKmMhG8Tj6CGPZ6-208" value="6" style="text;strokeColor=none;fillColor=none;html=1;align=center;verticalAlign=middle;whiteSpace=wrap;rounded=1;fontSize=16;labelBackgroundColor=none;" vertex="1" parent="IIMoWA1YYtscb8tn20ki-31">
          <mxGeometry x="-4.857142857142858" width="48.57142857142857" height="23.333333333333332" as="geometry" />
        </mxCell>
        <mxCell id="OHJZcfKmMhG8Tj6CGPZ6-209" value="7" style="text;strokeColor=none;fillColor=none;html=1;align=center;verticalAlign=middle;whiteSpace=wrap;rounded=1;fontSize=16;labelBackgroundColor=none;" vertex="1" parent="IIMoWA1YYtscb8tn20ki-31">
          <mxGeometry x="97.14285714285714" width="48.57142857142857" height="23.333333333333332" as="geometry" />
        </mxCell>
        <mxCell id="OHJZcfKmMhG8Tj6CGPZ6-210" value="11" style="text;strokeColor=none;fillColor=none;html=1;align=center;verticalAlign=middle;whiteSpace=wrap;rounded=1;fontSize=16;labelBackgroundColor=none;" vertex="1" parent="IIMoWA1YYtscb8tn20ki-31">
          <mxGeometry x="-6.476190476190476" y="60.666666666666664" width="48.57142857142857" height="23.333333333333332" as="geometry" />
        </mxCell>
        <mxCell id="OHJZcfKmMhG8Tj6CGPZ6-211" value="12" style="text;strokeColor=none;fillColor=none;html=1;align=center;verticalAlign=middle;whiteSpace=wrap;rounded=1;fontSize=16;labelBackgroundColor=none;" vertex="1" parent="IIMoWA1YYtscb8tn20ki-31">
          <mxGeometry x="94.71428571428572" y="62.22222222222222" width="48.57142857142857" height="23.333333333333332" as="geometry" />
        </mxCell>
        <mxCell id="OHJZcfKmMhG8Tj6CGPZ6-227" value="10" style="text;strokeColor=none;fillColor=none;html=1;align=center;verticalAlign=middle;whiteSpace=wrap;rounded=1;fontSize=16;labelBackgroundColor=none;" vertex="1" parent="IIMoWA1YYtscb8tn20ki-31">
          <mxGeometry x="46.142857142857146" y="62.22222222222222" width="48.57142857142857" height="23.333333333333332" as="geometry" />
        </mxCell>
        <mxCell id="IIMoWA1YYtscb8tn20ki-41" value="" style="group;labelBackgroundColor=none;rounded=1;" vertex="1" connectable="0" parent="1">
          <mxGeometry x="-514" y="283" width="144" height="94" as="geometry" />
        </mxCell>
        <mxCell id="IIMoWA1YYtscb8tn20ki-42" value="Task 9" style="rounded=1;whiteSpace=wrap;html=1;labelBackgroundColor=none;" vertex="1" parent="IIMoWA1YYtscb8tn20ki-41">
          <mxGeometry width="144" height="93.99999999999999" as="geometry" />
        </mxCell>
        <mxCell id="IIMoWA1YYtscb8tn20ki-43" value="" style="endArrow=none;html=1;rounded=1;fontSize=12;startSize=8;endSize=8;curved=1;entryX=1;entryY=0.25;entryDx=0;entryDy=0;exitX=0;exitY=0.25;exitDx=0;exitDy=0;labelBackgroundColor=none;fontColor=default;" edge="1" parent="IIMoWA1YYtscb8tn20ki-41" source="IIMoWA1YYtscb8tn20ki-42" target="IIMoWA1YYtscb8tn20ki-42">
          <mxGeometry width="50" height="50" relative="1" as="geometry">
            <mxPoint x="83.70443349753695" y="110.63076923076925" as="sourcePoint" />
            <mxPoint x="119.17241379310346" y="74.47692307692309" as="targetPoint" />
          </mxGeometry>
        </mxCell>
        <mxCell id="IIMoWA1YYtscb8tn20ki-44" value="" style="endArrow=none;html=1;rounded=1;fontSize=12;startSize=8;endSize=8;curved=1;entryX=1;entryY=0.75;entryDx=0;entryDy=0;exitX=0;exitY=0.75;exitDx=0;exitDy=0;labelBackgroundColor=none;fontColor=default;" edge="1" parent="IIMoWA1YYtscb8tn20ki-41" source="IIMoWA1YYtscb8tn20ki-42" target="IIMoWA1YYtscb8tn20ki-42">
          <mxGeometry width="50" height="50" relative="1" as="geometry">
            <mxPoint x="-1.4187192118226604" y="64.35384615384616" as="sourcePoint" />
            <mxPoint x="142.58128078817734" y="64.35384615384616" as="targetPoint" />
          </mxGeometry>
        </mxCell>
        <mxCell id="IIMoWA1YYtscb8tn20ki-45" style="edgeStyle=none;curved=1;rounded=1;orthogonalLoop=1;jettySize=auto;html=1;exitX=0.5;exitY=1;exitDx=0;exitDy=0;fontSize=12;startSize=8;endSize=8;labelBackgroundColor=none;fontColor=default;" edge="1" parent="IIMoWA1YYtscb8tn20ki-41" source="IIMoWA1YYtscb8tn20ki-42" target="IIMoWA1YYtscb8tn20ki-42">
          <mxGeometry relative="1" as="geometry" />
        </mxCell>
        <mxCell id="IIMoWA1YYtscb8tn20ki-46" style="edgeStyle=none;curved=1;rounded=1;orthogonalLoop=1;jettySize=auto;html=1;exitX=0.5;exitY=1;exitDx=0;exitDy=0;fontSize=12;startSize=8;endSize=8;labelBackgroundColor=none;fontColor=default;" edge="1" parent="IIMoWA1YYtscb8tn20ki-41" source="IIMoWA1YYtscb8tn20ki-42" target="IIMoWA1YYtscb8tn20ki-42">
          <mxGeometry relative="1" as="geometry" />
        </mxCell>
        <mxCell id="IIMoWA1YYtscb8tn20ki-47" value="" style="endArrow=none;html=1;rounded=1;fontSize=12;startSize=8;endSize=8;curved=1;exitX=0.25;exitY=0;exitDx=0;exitDy=0;labelBackgroundColor=none;fontColor=default;" edge="1" parent="IIMoWA1YYtscb8tn20ki-41" source="IIMoWA1YYtscb8tn20ki-42">
          <mxGeometry width="50" height="50" relative="1" as="geometry">
            <mxPoint x="83.70443349753695" y="110.63076923076925" as="sourcePoint" />
            <mxPoint x="36.177339901477836" y="24.584615384615383" as="targetPoint" />
          </mxGeometry>
        </mxCell>
        <mxCell id="IIMoWA1YYtscb8tn20ki-48" value="" style="endArrow=none;html=1;rounded=1;fontSize=12;startSize=8;endSize=8;curved=1;exitX=0.75;exitY=0;exitDx=0;exitDy=0;labelBackgroundColor=none;fontColor=default;" edge="1" parent="IIMoWA1YYtscb8tn20ki-41" source="IIMoWA1YYtscb8tn20ki-42">
          <mxGeometry width="50" height="50" relative="1" as="geometry">
            <mxPoint x="43.27093596059114" y="7.230769230769231" as="sourcePoint" />
            <mxPoint x="107.82266009852219" y="23.138461538461538" as="targetPoint" />
          </mxGeometry>
        </mxCell>
        <mxCell id="IIMoWA1YYtscb8tn20ki-49" value="" style="endArrow=none;html=1;rounded=1;fontSize=12;startSize=8;endSize=8;curved=1;exitX=0.25;exitY=1;exitDx=0;exitDy=0;labelBackgroundColor=none;fontColor=default;" edge="1" parent="IIMoWA1YYtscb8tn20ki-41" source="IIMoWA1YYtscb8tn20ki-42">
          <mxGeometry width="50" height="50" relative="1" as="geometry">
            <mxPoint x="43.27093596059114" y="7.230769230769231" as="sourcePoint" />
            <mxPoint x="36.177339901477836" y="70.86153846153846" as="targetPoint" />
          </mxGeometry>
        </mxCell>
        <mxCell id="IIMoWA1YYtscb8tn20ki-50" value="" style="endArrow=none;html=1;rounded=1;fontSize=12;startSize=8;endSize=8;curved=1;entryX=0.75;entryY=1;entryDx=0;entryDy=0;labelBackgroundColor=none;fontColor=default;" edge="1" parent="IIMoWA1YYtscb8tn20ki-41" target="IIMoWA1YYtscb8tn20ki-42">
          <mxGeometry width="50" height="50" relative="1" as="geometry">
            <mxPoint x="107.82266009852219" y="70.86153846153846" as="sourcePoint" />
            <mxPoint x="43.27093596059114" y="78.09230769230768" as="targetPoint" />
          </mxGeometry>
        </mxCell>
        <mxCell id="OHJZcfKmMhG8Tj6CGPZ6-42" value="3" style="text;strokeColor=none;fillColor=none;html=1;align=center;verticalAlign=middle;whiteSpace=wrap;rounded=1;fontSize=16;labelBackgroundColor=none;" vertex="1" parent="IIMoWA1YYtscb8tn20ki-41">
          <mxGeometry x="45.16770186335405" width="53.664596273291934" height="24.102564102564102" as="geometry" />
        </mxCell>
        <mxCell id="OHJZcfKmMhG8Tj6CGPZ6-228" value="12" style="text;strokeColor=none;fillColor=none;html=1;align=center;verticalAlign=middle;whiteSpace=wrap;rounded=1;fontSize=16;labelBackgroundColor=none;" vertex="1" parent="IIMoWA1YYtscb8tn20ki-41">
          <mxGeometry x="-8.49689440993789" y="69.8974358974359" width="53.664596273291934" height="24.102564102564102" as="geometry" />
        </mxCell>
        <mxCell id="OHJZcfKmMhG8Tj6CGPZ6-229" value="7" style="text;strokeColor=none;fillColor=none;html=1;align=center;verticalAlign=middle;whiteSpace=wrap;rounded=1;fontSize=16;labelBackgroundColor=none;" vertex="1" parent="IIMoWA1YYtscb8tn20ki-41">
          <mxGeometry x="-8.49689440993789" width="53.664596273291934" height="24.102564102564102" as="geometry" />
        </mxCell>
        <mxCell id="OHJZcfKmMhG8Tj6CGPZ6-243" value="10" style="text;strokeColor=none;fillColor=none;html=1;align=center;verticalAlign=middle;whiteSpace=wrap;rounded=1;fontSize=16;labelBackgroundColor=none;" vertex="1" parent="IIMoWA1YYtscb8tn20ki-41">
          <mxGeometry x="98.83229813664597" width="53.664596273291934" height="24.102564102564102" as="geometry" />
        </mxCell>
        <mxCell id="OHJZcfKmMhG8Tj6CGPZ6-258" value="15" style="text;strokeColor=none;fillColor=none;html=1;align=center;verticalAlign=middle;whiteSpace=wrap;rounded=1;fontSize=16;labelBackgroundColor=none;" vertex="1" parent="IIMoWA1YYtscb8tn20ki-41">
          <mxGeometry x="102.85714285714286" y="69.8974358974359" width="53.664596273291934" height="24.102564102564102" as="geometry" />
        </mxCell>
        <mxCell id="OHJZcfKmMhG8Tj6CGPZ6-259" value="6" style="text;strokeColor=none;fillColor=none;html=1;align=center;verticalAlign=middle;whiteSpace=wrap;rounded=1;fontSize=16;labelBackgroundColor=none;" vertex="1" parent="IIMoWA1YYtscb8tn20ki-41">
          <mxGeometry x="49.192546583850934" y="69.8974358974359" width="53.664596273291934" height="24.102564102564102" as="geometry" />
        </mxCell>
        <mxCell id="IIMoWA1YYtscb8tn20ki-51" value="" style="group;labelBackgroundColor=none;rounded=1;" vertex="1" connectable="0" parent="1">
          <mxGeometry x="-349" y="159" width="149" height="89" as="geometry" />
        </mxCell>
        <mxCell id="IIMoWA1YYtscb8tn20ki-52" value="Task 10&amp;nbsp;" style="rounded=1;whiteSpace=wrap;html=1;labelBackgroundColor=none;" vertex="1" parent="IIMoWA1YYtscb8tn20ki-51">
          <mxGeometry width="140.69794721407624" height="89" as="geometry" />
        </mxCell>
        <mxCell id="IIMoWA1YYtscb8tn20ki-53" value="" style="endArrow=none;html=1;rounded=1;fontSize=12;startSize=8;endSize=8;curved=1;entryX=1;entryY=0.25;entryDx=0;entryDy=0;exitX=0;exitY=0.25;exitDx=0;exitDy=0;labelBackgroundColor=none;fontColor=default;" edge="1" parent="IIMoWA1YYtscb8tn20ki-51" source="IIMoWA1YYtscb8tn20ki-52" target="IIMoWA1YYtscb8tn20ki-52">
          <mxGeometry width="50" height="50" relative="1" as="geometry">
            <mxPoint x="81.785013651532" y="104.74615384615385" as="sourcePoint" />
            <mxPoint x="116.43968045302861" y="70.51538461538462" as="targetPoint" />
          </mxGeometry>
        </mxCell>
        <mxCell id="IIMoWA1YYtscb8tn20ki-54" value="" style="endArrow=none;html=1;rounded=1;fontSize=12;startSize=8;endSize=8;curved=1;entryX=1;entryY=0.75;entryDx=0;entryDy=0;exitX=0;exitY=0.75;exitDx=0;exitDy=0;labelBackgroundColor=none;fontColor=default;" edge="1" parent="IIMoWA1YYtscb8tn20ki-51" source="IIMoWA1YYtscb8tn20ki-52" target="IIMoWA1YYtscb8tn20ki-52">
          <mxGeometry width="50" height="50" relative="1" as="geometry">
            <mxPoint x="-1.3861866720598646" y="60.93076923076923" as="sourcePoint" />
            <mxPoint x="139.31176054201637" y="60.93076923076923" as="targetPoint" />
          </mxGeometry>
        </mxCell>
        <mxCell id="IIMoWA1YYtscb8tn20ki-55" style="edgeStyle=none;curved=1;rounded=1;orthogonalLoop=1;jettySize=auto;html=1;exitX=0.5;exitY=1;exitDx=0;exitDy=0;fontSize=12;startSize=8;endSize=8;labelBackgroundColor=none;fontColor=default;" edge="1" parent="IIMoWA1YYtscb8tn20ki-51" source="IIMoWA1YYtscb8tn20ki-52" target="IIMoWA1YYtscb8tn20ki-52">
          <mxGeometry relative="1" as="geometry" />
        </mxCell>
        <mxCell id="IIMoWA1YYtscb8tn20ki-56" style="edgeStyle=none;curved=1;rounded=1;orthogonalLoop=1;jettySize=auto;html=1;exitX=0.5;exitY=1;exitDx=0;exitDy=0;fontSize=12;startSize=8;endSize=8;labelBackgroundColor=none;fontColor=default;" edge="1" parent="IIMoWA1YYtscb8tn20ki-51" source="IIMoWA1YYtscb8tn20ki-52" target="IIMoWA1YYtscb8tn20ki-52">
          <mxGeometry relative="1" as="geometry" />
        </mxCell>
        <mxCell id="IIMoWA1YYtscb8tn20ki-57" value="" style="endArrow=none;html=1;rounded=1;fontSize=12;startSize=8;endSize=8;curved=1;exitX=0.25;exitY=0;exitDx=0;exitDy=0;labelBackgroundColor=none;fontColor=default;" edge="1" parent="IIMoWA1YYtscb8tn20ki-51" source="IIMoWA1YYtscb8tn20ki-52">
          <mxGeometry width="50" height="50" relative="1" as="geometry">
            <mxPoint x="81.785013651532" y="104.74615384615385" as="sourcePoint" />
            <mxPoint x="35.34776013752655" y="23.27692307692308" as="targetPoint" />
          </mxGeometry>
        </mxCell>
        <mxCell id="IIMoWA1YYtscb8tn20ki-58" value="" style="endArrow=none;html=1;rounded=1;fontSize=12;startSize=8;endSize=8;curved=1;exitX=0.75;exitY=0;exitDx=0;exitDy=0;labelBackgroundColor=none;fontColor=default;" edge="1" parent="IIMoWA1YYtscb8tn20ki-51" source="IIMoWA1YYtscb8tn20ki-52">
          <mxGeometry width="50" height="50" relative="1" as="geometry">
            <mxPoint x="42.27869349782586" y="6.846153846153847" as="sourcePoint" />
            <mxPoint x="105.35018707654972" y="21.907692307692308" as="targetPoint" />
          </mxGeometry>
        </mxCell>
        <mxCell id="IIMoWA1YYtscb8tn20ki-59" value="" style="endArrow=none;html=1;rounded=1;fontSize=12;startSize=8;endSize=8;curved=1;exitX=0.25;exitY=1;exitDx=0;exitDy=0;labelBackgroundColor=none;fontColor=default;" edge="1" parent="IIMoWA1YYtscb8tn20ki-51" source="IIMoWA1YYtscb8tn20ki-52">
          <mxGeometry width="50" height="50" relative="1" as="geometry">
            <mxPoint x="42.27869349782586" y="6.846153846153847" as="sourcePoint" />
            <mxPoint x="35.34776013752655" y="67.0923076923077" as="targetPoint" />
          </mxGeometry>
        </mxCell>
        <mxCell id="IIMoWA1YYtscb8tn20ki-60" value="" style="endArrow=none;html=1;rounded=1;fontSize=12;startSize=8;endSize=8;curved=1;entryX=0.75;entryY=1;entryDx=0;entryDy=0;labelBackgroundColor=none;fontColor=default;" edge="1" parent="IIMoWA1YYtscb8tn20ki-51" target="IIMoWA1YYtscb8tn20ki-52">
          <mxGeometry width="50" height="50" relative="1" as="geometry">
            <mxPoint x="105.35018707654972" y="67.0923076923077" as="sourcePoint" />
            <mxPoint x="42.27869349782586" y="73.93846153846154" as="targetPoint" />
          </mxGeometry>
        </mxCell>
        <mxCell id="OHJZcfKmMhG8Tj6CGPZ6-43" value="1" style="text;strokeColor=none;fillColor=none;html=1;align=center;verticalAlign=middle;whiteSpace=wrap;rounded=1;fontSize=16;labelBackgroundColor=none;" vertex="1" parent="IIMoWA1YYtscb8tn20ki-51">
          <mxGeometry x="44.131964809384165" width="52.43401759530792" height="24.72222222222222" as="geometry" />
        </mxCell>
        <mxCell id="OHJZcfKmMhG8Tj6CGPZ6-260" value="6" style="text;strokeColor=none;fillColor=none;html=1;align=center;verticalAlign=middle;whiteSpace=wrap;rounded=1;fontSize=16;labelBackgroundColor=none;" vertex="1" parent="IIMoWA1YYtscb8tn20ki-51">
          <mxGeometry x="-6.117302052785924" width="52.43401759530792" height="24.72222222222222" as="geometry" />
        </mxCell>
        <mxCell id="OHJZcfKmMhG8Tj6CGPZ6-277" value="7" style="text;strokeColor=none;fillColor=none;html=1;align=center;verticalAlign=middle;whiteSpace=wrap;rounded=1;fontSize=16;labelBackgroundColor=none;" vertex="1" parent="IIMoWA1YYtscb8tn20ki-51">
          <mxGeometry x="96.56598240469208" width="52.43401759530792" height="24.72222222222222" as="geometry" />
        </mxCell>
        <mxCell id="OHJZcfKmMhG8Tj6CGPZ6-278" value="11" style="text;strokeColor=none;fillColor=none;html=1;align=center;verticalAlign=middle;whiteSpace=wrap;rounded=1;fontSize=16;labelBackgroundColor=none;" vertex="1" parent="IIMoWA1YYtscb8tn20ki-51">
          <mxGeometry x="-10.486803519061581" y="64.27777777777779" width="52.43401759530792" height="24.72222222222222" as="geometry" />
        </mxCell>
        <mxCell id="OHJZcfKmMhG8Tj6CGPZ6-279" value="12" style="text;strokeColor=none;fillColor=none;html=1;align=center;verticalAlign=middle;whiteSpace=wrap;rounded=1;fontSize=16;labelBackgroundColor=none;" vertex="1" parent="IIMoWA1YYtscb8tn20ki-51">
          <mxGeometry x="96.56598240469208" y="64.27777777777779" width="52.43401759530792" height="24.72222222222222" as="geometry" />
        </mxCell>
        <mxCell id="OHJZcfKmMhG8Tj6CGPZ6-280" value="6" style="text;strokeColor=none;fillColor=none;html=1;align=center;verticalAlign=middle;whiteSpace=wrap;rounded=1;fontSize=16;labelBackgroundColor=none;" vertex="1" parent="IIMoWA1YYtscb8tn20ki-51">
          <mxGeometry x="46.316715542522" y="64.27777777777779" width="52.43401759530792" height="24.72222222222222" as="geometry" />
        </mxCell>
        <mxCell id="IIMoWA1YYtscb8tn20ki-61" value="" style="group;labelBackgroundColor=none;rounded=1;" vertex="1" connectable="0" parent="1">
          <mxGeometry x="-349" y="283" width="152" height="99" as="geometry" />
        </mxCell>
        <mxCell id="IIMoWA1YYtscb8tn20ki-62" value="Task 11&amp;nbsp;" style="rounded=1;whiteSpace=wrap;html=1;labelBackgroundColor=none;" vertex="1" parent="IIMoWA1YYtscb8tn20ki-61">
          <mxGeometry width="141.75280898876403" height="96.32432432432432" as="geometry" />
        </mxCell>
        <mxCell id="IIMoWA1YYtscb8tn20ki-63" value="" style="endArrow=none;html=1;rounded=1;fontSize=12;startSize=8;endSize=8;curved=1;entryX=1;entryY=0.25;entryDx=0;entryDy=0;exitX=0;exitY=0.25;exitDx=0;exitDy=0;labelBackgroundColor=none;fontColor=default;" edge="1" parent="IIMoWA1YYtscb8tn20ki-61" source="IIMoWA1YYtscb8tn20ki-62" target="IIMoWA1YYtscb8tn20ki-62">
          <mxGeometry width="50" height="50" relative="1" as="geometry">
            <mxPoint x="82.39818453534066" y="113.36632016632016" as="sourcePoint" />
            <mxPoint x="117.31266950794267" y="76.31850311850312" as="targetPoint" />
          </mxGeometry>
        </mxCell>
        <mxCell id="IIMoWA1YYtscb8tn20ki-64" value="" style="endArrow=none;html=1;rounded=1;fontSize=12;startSize=8;endSize=8;curved=1;entryX=1;entryY=0.75;entryDx=0;entryDy=0;exitX=0;exitY=0.75;exitDx=0;exitDy=0;labelBackgroundColor=none;fontColor=default;" edge="1" parent="IIMoWA1YYtscb8tn20ki-61" source="IIMoWA1YYtscb8tn20ki-62" target="IIMoWA1YYtscb8tn20ki-62">
          <mxGeometry width="50" height="50" relative="1" as="geometry">
            <mxPoint x="-1.3965793989040796" y="65.94511434511433" as="sourcePoint" />
            <mxPoint x="140.35622958985996" y="65.94511434511433" as="targetPoint" />
          </mxGeometry>
        </mxCell>
        <mxCell id="IIMoWA1YYtscb8tn20ki-65" style="edgeStyle=none;curved=1;rounded=1;orthogonalLoop=1;jettySize=auto;html=1;exitX=0.5;exitY=1;exitDx=0;exitDy=0;fontSize=12;startSize=8;endSize=8;labelBackgroundColor=none;fontColor=default;" edge="1" parent="IIMoWA1YYtscb8tn20ki-61" source="IIMoWA1YYtscb8tn20ki-62" target="IIMoWA1YYtscb8tn20ki-62">
          <mxGeometry relative="1" as="geometry" />
        </mxCell>
        <mxCell id="IIMoWA1YYtscb8tn20ki-66" style="edgeStyle=none;curved=1;rounded=1;orthogonalLoop=1;jettySize=auto;html=1;exitX=0.5;exitY=1;exitDx=0;exitDy=0;fontSize=12;startSize=8;endSize=8;labelBackgroundColor=none;fontColor=default;" edge="1" parent="IIMoWA1YYtscb8tn20ki-61" source="IIMoWA1YYtscb8tn20ki-62" target="IIMoWA1YYtscb8tn20ki-62">
          <mxGeometry relative="1" as="geometry" />
        </mxCell>
        <mxCell id="IIMoWA1YYtscb8tn20ki-67" value="" style="endArrow=none;html=1;rounded=1;fontSize=12;startSize=8;endSize=8;curved=1;exitX=0.25;exitY=0;exitDx=0;exitDy=0;labelBackgroundColor=none;fontColor=default;" edge="1" parent="IIMoWA1YYtscb8tn20ki-61" source="IIMoWA1YYtscb8tn20ki-62">
          <mxGeometry width="50" height="50" relative="1" as="geometry">
            <mxPoint x="82.39818453534066" y="113.36632016632016" as="sourcePoint" />
            <mxPoint x="35.61277467205402" y="25.192515592515594" as="targetPoint" />
          </mxGeometry>
        </mxCell>
        <mxCell id="IIMoWA1YYtscb8tn20ki-68" value="" style="endArrow=none;html=1;rounded=1;fontSize=12;startSize=8;endSize=8;curved=1;exitX=0.75;exitY=0;exitDx=0;exitDy=0;labelBackgroundColor=none;fontColor=default;" edge="1" parent="IIMoWA1YYtscb8tn20ki-61" source="IIMoWA1YYtscb8tn20ki-62">
          <mxGeometry width="50" height="50" relative="1" as="geometry">
            <mxPoint x="42.59567166657441" y="7.409563409563409" as="sourcePoint" />
            <mxPoint x="106.14003431671003" y="23.710602910602912" as="targetPoint" />
          </mxGeometry>
        </mxCell>
        <mxCell id="IIMoWA1YYtscb8tn20ki-69" value="" style="endArrow=none;html=1;rounded=1;fontSize=12;startSize=8;endSize=8;curved=1;exitX=0.25;exitY=1;exitDx=0;exitDy=0;labelBackgroundColor=none;fontColor=default;" edge="1" parent="IIMoWA1YYtscb8tn20ki-61" source="IIMoWA1YYtscb8tn20ki-62">
          <mxGeometry width="50" height="50" relative="1" as="geometry">
            <mxPoint x="42.59567166657441" y="7.409563409563409" as="sourcePoint" />
            <mxPoint x="35.61277467205402" y="72.61372141372142" as="targetPoint" />
          </mxGeometry>
        </mxCell>
        <mxCell id="IIMoWA1YYtscb8tn20ki-70" value="" style="endArrow=none;html=1;rounded=1;fontSize=12;startSize=8;endSize=8;curved=1;entryX=0.75;entryY=1;entryDx=0;entryDy=0;labelBackgroundColor=none;fontColor=default;" edge="1" parent="IIMoWA1YYtscb8tn20ki-61" target="IIMoWA1YYtscb8tn20ki-62">
          <mxGeometry width="50" height="50" relative="1" as="geometry">
            <mxPoint x="106.14003431671003" y="72.61372141372142" as="sourcePoint" />
            <mxPoint x="42.59567166657441" y="80.02328482328483" as="targetPoint" />
          </mxGeometry>
        </mxCell>
        <mxCell id="OHJZcfKmMhG8Tj6CGPZ6-44" value="3" style="text;strokeColor=none;fillColor=none;html=1;align=center;verticalAlign=middle;whiteSpace=wrap;rounded=1;fontSize=16;labelBackgroundColor=none;" vertex="1" parent="IIMoWA1YYtscb8tn20ki-61">
          <mxGeometry x="45.258426966292134" y="-1.7837837837837833" width="51.23595505617978" height="26.756756756756754" as="geometry" />
        </mxCell>
        <mxCell id="OHJZcfKmMhG8Tj6CGPZ6-313" value="12" style="text;strokeColor=none;fillColor=none;html=1;align=center;verticalAlign=middle;whiteSpace=wrap;rounded=1;fontSize=16;labelBackgroundColor=none;" vertex="1" parent="IIMoWA1YYtscb8tn20ki-61">
          <mxGeometry x="-5.97752808988764" y="72.24324324324324" width="51.23595505617978" height="26.756756756756754" as="geometry" />
        </mxCell>
        <mxCell id="OHJZcfKmMhG8Tj6CGPZ6-330" value="7" style="text;strokeColor=none;fillColor=none;html=1;align=center;verticalAlign=middle;whiteSpace=wrap;rounded=1;fontSize=16;labelBackgroundColor=none;" vertex="1" parent="IIMoWA1YYtscb8tn20ki-61">
          <mxGeometry x="-11.101123595505618" y="-1.7837837837837833" width="51.23595505617978" height="26.756756756756754" as="geometry" />
        </mxCell>
        <mxCell id="OHJZcfKmMhG8Tj6CGPZ6-347" value="10" style="text;strokeColor=none;fillColor=none;html=1;align=center;verticalAlign=middle;whiteSpace=wrap;rounded=1;fontSize=16;labelBackgroundColor=none;" vertex="1" parent="IIMoWA1YYtscb8tn20ki-61">
          <mxGeometry x="96.49438202247191" width="51.23595505617978" height="26.756756756756754" as="geometry" />
        </mxCell>
        <mxCell id="OHJZcfKmMhG8Tj6CGPZ6-380" value="15" style="text;strokeColor=none;fillColor=none;html=1;align=center;verticalAlign=middle;whiteSpace=wrap;rounded=1;fontSize=16;labelBackgroundColor=none;" vertex="1" parent="IIMoWA1YYtscb8tn20ki-61">
          <mxGeometry x="100.76404494382022" y="72.24324324324324" width="51.23595505617978" height="26.756756756756754" as="geometry" />
        </mxCell>
        <mxCell id="OHJZcfKmMhG8Tj6CGPZ6-381" value="6" style="text;strokeColor=none;fillColor=none;html=1;align=center;verticalAlign=middle;whiteSpace=wrap;rounded=1;fontSize=16;labelBackgroundColor=none;" vertex="1" parent="IIMoWA1YYtscb8tn20ki-61">
          <mxGeometry x="45.258426966292134" y="72.24324324324324" width="51.23595505617978" height="26.756756756756754" as="geometry" />
        </mxCell>
        <mxCell id="IIMoWA1YYtscb8tn20ki-71" value="" style="group;labelBackgroundColor=none;rounded=1;" vertex="1" connectable="0" parent="1">
          <mxGeometry x="-575" y="512" width="147" height="97" as="geometry" />
        </mxCell>
        <mxCell id="IIMoWA1YYtscb8tn20ki-72" value="Task 12&amp;nbsp;" style="rounded=1;whiteSpace=wrap;html=1;labelBackgroundColor=none;" vertex="1" parent="IIMoWA1YYtscb8tn20ki-71">
          <mxGeometry width="147" height="97" as="geometry" />
        </mxCell>
        <mxCell id="IIMoWA1YYtscb8tn20ki-73" value="" style="endArrow=none;html=1;rounded=1;fontSize=12;startSize=8;endSize=8;curved=1;entryX=1;entryY=0.25;entryDx=0;entryDy=0;exitX=0;exitY=0.25;exitDx=0;exitDy=0;labelBackgroundColor=none;fontColor=default;" edge="1" parent="IIMoWA1YYtscb8tn20ki-71" source="IIMoWA1YYtscb8tn20ki-72" target="IIMoWA1YYtscb8tn20ki-72">
          <mxGeometry width="50" height="50" relative="1" as="geometry">
            <mxPoint x="85.44827586206895" y="114.16153846153847" as="sourcePoint" />
            <mxPoint x="121.65517241379312" y="76.85384615384616" as="targetPoint" />
          </mxGeometry>
        </mxCell>
        <mxCell id="IIMoWA1YYtscb8tn20ki-74" value="" style="endArrow=none;html=1;rounded=1;fontSize=12;startSize=8;endSize=8;curved=1;entryX=1;entryY=0.75;entryDx=0;entryDy=0;exitX=0;exitY=0.75;exitDx=0;exitDy=0;labelBackgroundColor=none;fontColor=default;" edge="1" parent="IIMoWA1YYtscb8tn20ki-71" source="IIMoWA1YYtscb8tn20ki-72" target="IIMoWA1YYtscb8tn20ki-72">
          <mxGeometry width="50" height="50" relative="1" as="geometry">
            <mxPoint x="-1.4482758620689655" y="66.4076923076923" as="sourcePoint" />
            <mxPoint x="145.55172413793105" y="66.4076923076923" as="targetPoint" />
          </mxGeometry>
        </mxCell>
        <mxCell id="IIMoWA1YYtscb8tn20ki-75" style="edgeStyle=none;curved=1;rounded=1;orthogonalLoop=1;jettySize=auto;html=1;exitX=0.5;exitY=1;exitDx=0;exitDy=0;fontSize=12;startSize=8;endSize=8;labelBackgroundColor=none;fontColor=default;" edge="1" parent="IIMoWA1YYtscb8tn20ki-71" source="IIMoWA1YYtscb8tn20ki-72" target="IIMoWA1YYtscb8tn20ki-72">
          <mxGeometry relative="1" as="geometry" />
        </mxCell>
        <mxCell id="IIMoWA1YYtscb8tn20ki-76" style="edgeStyle=none;curved=1;rounded=1;orthogonalLoop=1;jettySize=auto;html=1;exitX=0.5;exitY=1;exitDx=0;exitDy=0;fontSize=12;startSize=8;endSize=8;labelBackgroundColor=none;fontColor=default;" edge="1" parent="IIMoWA1YYtscb8tn20ki-71" source="IIMoWA1YYtscb8tn20ki-72" target="IIMoWA1YYtscb8tn20ki-72">
          <mxGeometry relative="1" as="geometry" />
        </mxCell>
        <mxCell id="IIMoWA1YYtscb8tn20ki-77" value="" style="endArrow=none;html=1;rounded=1;fontSize=12;startSize=8;endSize=8;curved=1;exitX=0.25;exitY=0;exitDx=0;exitDy=0;labelBackgroundColor=none;fontColor=default;" edge="1" parent="IIMoWA1YYtscb8tn20ki-71" source="IIMoWA1YYtscb8tn20ki-72">
          <mxGeometry width="50" height="50" relative="1" as="geometry">
            <mxPoint x="85.44827586206895" y="114.16153846153847" as="sourcePoint" />
            <mxPoint x="36.931034482758626" y="25.36923076923077" as="targetPoint" />
          </mxGeometry>
        </mxCell>
        <mxCell id="IIMoWA1YYtscb8tn20ki-78" value="" style="endArrow=none;html=1;rounded=1;fontSize=12;startSize=8;endSize=8;curved=1;exitX=0.75;exitY=0;exitDx=0;exitDy=0;labelBackgroundColor=none;fontColor=default;" edge="1" parent="IIMoWA1YYtscb8tn20ki-71" source="IIMoWA1YYtscb8tn20ki-72">
          <mxGeometry width="50" height="50" relative="1" as="geometry">
            <mxPoint x="44.17241379310345" y="7.461538461538462" as="sourcePoint" />
            <mxPoint x="110.06896551724138" y="23.876923076923077" as="targetPoint" />
          </mxGeometry>
        </mxCell>
        <mxCell id="IIMoWA1YYtscb8tn20ki-79" value="" style="endArrow=none;html=1;rounded=1;fontSize=12;startSize=8;endSize=8;curved=1;exitX=0.25;exitY=1;exitDx=0;exitDy=0;labelBackgroundColor=none;fontColor=default;" edge="1" parent="IIMoWA1YYtscb8tn20ki-71" source="IIMoWA1YYtscb8tn20ki-72">
          <mxGeometry width="50" height="50" relative="1" as="geometry">
            <mxPoint x="44.17241379310345" y="7.461538461538462" as="sourcePoint" />
            <mxPoint x="36.931034482758626" y="73.12307692307694" as="targetPoint" />
          </mxGeometry>
        </mxCell>
        <mxCell id="IIMoWA1YYtscb8tn20ki-80" value="" style="endArrow=none;html=1;rounded=1;fontSize=12;startSize=8;endSize=8;curved=1;entryX=0.75;entryY=1;entryDx=0;entryDy=0;labelBackgroundColor=none;fontColor=default;" edge="1" parent="IIMoWA1YYtscb8tn20ki-71" target="IIMoWA1YYtscb8tn20ki-72">
          <mxGeometry width="50" height="50" relative="1" as="geometry">
            <mxPoint x="110.06896551724138" y="73.12307692307694" as="sourcePoint" />
            <mxPoint x="44.17241379310345" y="80.58461538461539" as="targetPoint" />
          </mxGeometry>
        </mxCell>
        <mxCell id="OHJZcfKmMhG8Tj6CGPZ6-45" value="4" style="text;strokeColor=none;fillColor=none;html=1;align=center;verticalAlign=middle;whiteSpace=wrap;rounded=1;fontSize=16;labelBackgroundColor=none;" vertex="1" parent="IIMoWA1YYtscb8tn20ki-71">
          <mxGeometry x="47.25" width="52.50000000000001" height="26.944444444444443" as="geometry" />
        </mxCell>
        <mxCell id="OHJZcfKmMhG8Tj6CGPZ6-382" value="15" style="text;strokeColor=none;fillColor=none;html=1;align=center;verticalAlign=middle;whiteSpace=wrap;rounded=1;fontSize=16;labelBackgroundColor=none;" vertex="1" parent="IIMoWA1YYtscb8tn20ki-71">
          <mxGeometry x="-5.250000000000001" width="52.50000000000001" height="26.944444444444443" as="geometry" />
        </mxCell>
        <mxCell id="OHJZcfKmMhG8Tj6CGPZ6-395" value="19" style="text;strokeColor=none;fillColor=none;html=1;align=center;verticalAlign=middle;whiteSpace=wrap;rounded=1;fontSize=16;labelBackgroundColor=none;" vertex="1" parent="IIMoWA1YYtscb8tn20ki-71">
          <mxGeometry x="104.125" width="52.50000000000001" height="26.944444444444443" as="geometry" />
        </mxCell>
        <mxCell id="OHJZcfKmMhG8Tj6CGPZ6-396" value="19" style="text;strokeColor=none;fillColor=none;html=1;align=center;verticalAlign=middle;whiteSpace=wrap;rounded=1;fontSize=16;labelBackgroundColor=none;" vertex="1" parent="IIMoWA1YYtscb8tn20ki-71">
          <mxGeometry x="104.125" y="72.75" width="52.50000000000001" height="26.944444444444443" as="geometry" />
        </mxCell>
        <mxCell id="OHJZcfKmMhG8Tj6CGPZ6-397" value="15" style="text;strokeColor=none;fillColor=none;html=1;align=center;verticalAlign=middle;whiteSpace=wrap;rounded=1;fontSize=16;labelBackgroundColor=none;" vertex="1" parent="IIMoWA1YYtscb8tn20ki-71">
          <mxGeometry x="-5.250000000000001" y="72.75" width="52.50000000000001" height="26.944444444444443" as="geometry" />
        </mxCell>
        <mxCell id="OHJZcfKmMhG8Tj6CGPZ6-398" value="0" style="text;strokeColor=none;fillColor=none;html=1;align=center;verticalAlign=middle;whiteSpace=wrap;rounded=1;fontSize=16;labelBackgroundColor=none;" vertex="1" parent="IIMoWA1YYtscb8tn20ki-71">
          <mxGeometry x="49.87500000000001" y="70.05555555555554" width="52.50000000000001" height="26.944444444444443" as="geometry" />
        </mxCell>
        <mxCell id="IIMoWA1YYtscb8tn20ki-1" value="" style="group;labelBackgroundColor=none;rounded=1;" vertex="1" connectable="0" parent="1">
          <mxGeometry x="-840" y="282" width="144" height="94" as="geometry" />
        </mxCell>
        <mxCell id="IIMoWA1YYtscb8tn20ki-2" value="Task 5&amp;nbsp;" style="rounded=1;whiteSpace=wrap;html=1;labelBackgroundColor=none;" vertex="1" parent="IIMoWA1YYtscb8tn20ki-1">
          <mxGeometry width="144" height="94" as="geometry" />
        </mxCell>
        <mxCell id="IIMoWA1YYtscb8tn20ki-3" value="" style="endArrow=none;html=1;rounded=1;fontSize=12;startSize=8;endSize=8;curved=1;entryX=1;entryY=0.25;entryDx=0;entryDy=0;exitX=0;exitY=0.25;exitDx=0;exitDy=0;labelBackgroundColor=none;fontColor=default;" edge="1" parent="IIMoWA1YYtscb8tn20ki-1" source="IIMoWA1YYtscb8tn20ki-2" target="IIMoWA1YYtscb8tn20ki-2">
          <mxGeometry width="50" height="50" relative="1" as="geometry">
            <mxPoint x="83.70443349753695" y="110.63076923076925" as="sourcePoint" />
            <mxPoint x="119.17241379310347" y="74.47692307692307" as="targetPoint" />
          </mxGeometry>
        </mxCell>
        <mxCell id="IIMoWA1YYtscb8tn20ki-4" value="" style="endArrow=none;html=1;rounded=1;fontSize=12;startSize=8;endSize=8;curved=1;entryX=1;entryY=0.75;entryDx=0;entryDy=0;exitX=0;exitY=0.75;exitDx=0;exitDy=0;labelBackgroundColor=none;fontColor=default;" edge="1" parent="IIMoWA1YYtscb8tn20ki-1" source="IIMoWA1YYtscb8tn20ki-2" target="IIMoWA1YYtscb8tn20ki-2">
          <mxGeometry width="50" height="50" relative="1" as="geometry">
            <mxPoint x="-1.4187192118226606" y="64.35384615384616" as="sourcePoint" />
            <mxPoint x="142.5812807881774" y="64.35384615384616" as="targetPoint" />
          </mxGeometry>
        </mxCell>
        <mxCell id="IIMoWA1YYtscb8tn20ki-5" style="edgeStyle=none;curved=1;rounded=1;orthogonalLoop=1;jettySize=auto;html=1;exitX=0.5;exitY=1;exitDx=0;exitDy=0;fontSize=12;startSize=8;endSize=8;labelBackgroundColor=none;fontColor=default;" edge="1" parent="IIMoWA1YYtscb8tn20ki-1" source="IIMoWA1YYtscb8tn20ki-2" target="IIMoWA1YYtscb8tn20ki-2">
          <mxGeometry relative="1" as="geometry" />
        </mxCell>
        <mxCell id="IIMoWA1YYtscb8tn20ki-6" style="edgeStyle=none;curved=1;rounded=1;orthogonalLoop=1;jettySize=auto;html=1;exitX=0.5;exitY=1;exitDx=0;exitDy=0;fontSize=12;startSize=8;endSize=8;labelBackgroundColor=none;fontColor=default;" edge="1" parent="IIMoWA1YYtscb8tn20ki-1" source="IIMoWA1YYtscb8tn20ki-2" target="IIMoWA1YYtscb8tn20ki-2">
          <mxGeometry relative="1" as="geometry" />
        </mxCell>
        <mxCell id="IIMoWA1YYtscb8tn20ki-7" value="" style="endArrow=none;html=1;rounded=1;fontSize=12;startSize=8;endSize=8;curved=1;exitX=0.25;exitY=0;exitDx=0;exitDy=0;labelBackgroundColor=none;fontColor=default;" edge="1" parent="IIMoWA1YYtscb8tn20ki-1" source="IIMoWA1YYtscb8tn20ki-2">
          <mxGeometry width="50" height="50" relative="1" as="geometry">
            <mxPoint x="83.70443349753695" y="110.63076923076925" as="sourcePoint" />
            <mxPoint x="36.17733990147784" y="24.584615384615383" as="targetPoint" />
          </mxGeometry>
        </mxCell>
        <mxCell id="IIMoWA1YYtscb8tn20ki-8" value="" style="endArrow=none;html=1;rounded=1;fontSize=12;startSize=8;endSize=8;curved=1;exitX=0.75;exitY=0;exitDx=0;exitDy=0;labelBackgroundColor=none;fontColor=default;" edge="1" parent="IIMoWA1YYtscb8tn20ki-1" source="IIMoWA1YYtscb8tn20ki-2">
          <mxGeometry width="50" height="50" relative="1" as="geometry">
            <mxPoint x="43.27093596059114" y="7.23076923076923" as="sourcePoint" />
            <mxPoint x="107.82266009852219" y="23.138461538461538" as="targetPoint" />
          </mxGeometry>
        </mxCell>
        <mxCell id="IIMoWA1YYtscb8tn20ki-9" value="" style="endArrow=none;html=1;rounded=1;fontSize=12;startSize=8;endSize=8;curved=1;exitX=0.25;exitY=1;exitDx=0;exitDy=0;labelBackgroundColor=none;fontColor=default;" edge="1" parent="IIMoWA1YYtscb8tn20ki-1" source="IIMoWA1YYtscb8tn20ki-2">
          <mxGeometry width="50" height="50" relative="1" as="geometry">
            <mxPoint x="43.27093596059114" y="7.23076923076923" as="sourcePoint" />
            <mxPoint x="36.17733990147784" y="70.86153846153846" as="targetPoint" />
          </mxGeometry>
        </mxCell>
        <mxCell id="IIMoWA1YYtscb8tn20ki-10" value="" style="endArrow=none;html=1;rounded=1;fontSize=12;startSize=8;endSize=8;curved=1;entryX=0.75;entryY=1;entryDx=0;entryDy=0;labelBackgroundColor=none;fontColor=default;" edge="1" parent="IIMoWA1YYtscb8tn20ki-1" target="IIMoWA1YYtscb8tn20ki-2">
          <mxGeometry width="50" height="50" relative="1" as="geometry">
            <mxPoint x="107.82266009852219" y="70.86153846153846" as="sourcePoint" />
            <mxPoint x="43.27093596059114" y="78.0923076923077" as="targetPoint" />
          </mxGeometry>
        </mxCell>
        <mxCell id="OHJZcfKmMhG8Tj6CGPZ6-27" value="3" style="text;strokeColor=none;fillColor=none;html=1;align=center;verticalAlign=middle;whiteSpace=wrap;rounded=1;fontSize=16;labelBackgroundColor=none;" vertex="1" parent="IIMoWA1YYtscb8tn20ki-1">
          <mxGeometry x="45.16770186335405" width="53.66459627329194" height="24.102564102564102" as="geometry" />
        </mxCell>
        <mxCell id="OHJZcfKmMhG8Tj6CGPZ6-109" value="8" style="text;strokeColor=none;fillColor=none;html=1;align=center;verticalAlign=middle;whiteSpace=wrap;rounded=1;fontSize=16;labelBackgroundColor=none;" vertex="1" parent="IIMoWA1YYtscb8tn20ki-1">
          <mxGeometry x="-2.683229813664596" width="53.66459627329194" height="24.102564102564102" as="geometry" />
        </mxCell>
        <mxCell id="OHJZcfKmMhG8Tj6CGPZ6-110" value="11" style="text;strokeColor=none;fillColor=none;html=1;align=center;verticalAlign=middle;whiteSpace=wrap;rounded=1;fontSize=16;labelBackgroundColor=none;" vertex="1" parent="IIMoWA1YYtscb8tn20ki-1">
          <mxGeometry x="98.83229813664597" width="53.66459627329194" height="24.102564102564102" as="geometry" />
        </mxCell>
        <mxCell id="OHJZcfKmMhG8Tj6CGPZ6-174" value="0" style="text;strokeColor=none;fillColor=none;html=1;align=center;verticalAlign=middle;whiteSpace=wrap;rounded=1;fontSize=16;labelBackgroundColor=none;" vertex="1" parent="IIMoWA1YYtscb8tn20ki-1">
          <mxGeometry x="45.16770186335405" y="69.8974358974359" width="53.66459627329194" height="24.102564102564102" as="geometry" />
        </mxCell>
        <mxCell id="OHJZcfKmMhG8Tj6CGPZ6-175" value="8" style="text;strokeColor=none;fillColor=none;html=1;align=center;verticalAlign=middle;whiteSpace=wrap;rounded=1;fontSize=16;labelBackgroundColor=none;" vertex="1" parent="IIMoWA1YYtscb8tn20ki-1">
          <mxGeometry x="-5.366459627329192" y="69.8974358974359" width="53.66459627329194" height="24.102564102564102" as="geometry" />
        </mxCell>
        <mxCell id="OHJZcfKmMhG8Tj6CGPZ6-176" value="11" style="text;strokeColor=none;fillColor=none;html=1;align=center;verticalAlign=middle;whiteSpace=wrap;rounded=1;fontSize=16;labelBackgroundColor=none;" vertex="1" parent="IIMoWA1YYtscb8tn20ki-1">
          <mxGeometry x="98.83229813664597" y="69.8974358974359" width="53.66459627329194" height="24.102564102564102" as="geometry" />
        </mxCell>
        <mxCell id="OHJZcfKmMhG8Tj6CGPZ6-401" style="edgeStyle=none;curved=1;rounded=1;orthogonalLoop=1;jettySize=auto;html=1;entryX=0.5;entryY=0;entryDx=0;entryDy=0;fontSize=12;startSize=8;endSize=8;labelBackgroundColor=none;fontColor=default;strokeColor=#FF0000;" edge="1" parent="1" source="aQXZlvpjPt8ZV1MpC3ru-1" target="OHJZcfKmMhG8Tj6CGPZ6-26">
          <mxGeometry relative="1" as="geometry" />
        </mxCell>
        <mxCell id="OHJZcfKmMhG8Tj6CGPZ6-404" style="edgeStyle=none;curved=1;rounded=1;orthogonalLoop=1;jettySize=auto;html=1;fontSize=12;startSize=8;endSize=8;labelBackgroundColor=none;fontColor=default;strokeColor=#FF0000;" edge="1" parent="1" source="aQXZlvpjPt8ZV1MpC3ru-34" target="OHJZcfKmMhG8Tj6CGPZ6-27">
          <mxGeometry relative="1" as="geometry" />
        </mxCell>
        <mxCell id="OHJZcfKmMhG8Tj6CGPZ6-405" style="edgeStyle=none;curved=1;rounded=1;orthogonalLoop=1;jettySize=auto;html=1;fontSize=12;startSize=8;endSize=8;labelBackgroundColor=none;fontColor=default;strokeColor=#FF0000;" edge="1" parent="1" source="IIMoWA1YYtscb8tn20ki-2" target="OHJZcfKmMhG8Tj6CGPZ6-28">
          <mxGeometry relative="1" as="geometry" />
        </mxCell>
        <mxCell id="OHJZcfKmMhG8Tj6CGPZ6-409" style="edgeStyle=none;curved=1;rounded=1;orthogonalLoop=1;jettySize=auto;html=1;exitX=0.5;exitY=1;exitDx=0;exitDy=0;entryX=0.5;entryY=0;entryDx=0;entryDy=0;fontSize=12;startSize=8;endSize=8;labelBackgroundColor=none;fontColor=default;" edge="1" parent="1" source="OHJZcfKmMhG8Tj6CGPZ6-79" target="OHJZcfKmMhG8Tj6CGPZ6-25">
          <mxGeometry relative="1" as="geometry" />
        </mxCell>
        <mxCell id="OHJZcfKmMhG8Tj6CGPZ6-411" style="edgeStyle=none;curved=1;rounded=1;orthogonalLoop=1;jettySize=auto;html=1;exitX=0.5;exitY=1;exitDx=0;exitDy=0;entryX=0.5;entryY=0;entryDx=0;entryDy=0;fontSize=12;startSize=8;endSize=8;labelBackgroundColor=none;fontColor=default;" edge="1" parent="1" source="OHJZcfKmMhG8Tj6CGPZ6-227" target="OHJZcfKmMhG8Tj6CGPZ6-42">
          <mxGeometry relative="1" as="geometry" />
        </mxCell>
        <mxCell id="OHJZcfKmMhG8Tj6CGPZ6-413" style="edgeStyle=none;curved=1;rounded=1;orthogonalLoop=1;jettySize=auto;html=1;exitX=0.5;exitY=1;exitDx=0;exitDy=0;entryX=0.5;entryY=0;entryDx=0;entryDy=0;fontSize=12;startSize=8;endSize=8;labelBackgroundColor=none;fontColor=default;" edge="1" parent="1" source="OHJZcfKmMhG8Tj6CGPZ6-280" target="OHJZcfKmMhG8Tj6CGPZ6-44">
          <mxGeometry relative="1" as="geometry" />
        </mxCell>
        <mxCell id="OHJZcfKmMhG8Tj6CGPZ6-406" style="edgeStyle=none;curved=1;rounded=1;orthogonalLoop=1;jettySize=auto;html=1;exitX=0.5;exitY=1;exitDx=0;exitDy=0;fontSize=12;startSize=8;endSize=8;entryX=0.5;entryY=0;entryDx=0;entryDy=0;labelBackgroundColor=none;fontColor=default;strokeColor=light-dark(#ff2600, #ededed);" edge="1" parent="1" source="OHJZcfKmMhG8Tj6CGPZ6-157" target="OHJZcfKmMhG8Tj6CGPZ6-40">
          <mxGeometry relative="1" as="geometry">
            <mxPoint x="-677.5" y="446" as="targetPoint" />
          </mxGeometry>
        </mxCell>
        <mxCell id="aQXZlvpjPt8ZV1MpC3ru-13" value="" style="group;labelBackgroundColor=none;rounded=1;" vertex="1" connectable="0" parent="1">
          <mxGeometry x="-677" y="161" width="147" height="90" as="geometry" />
        </mxCell>
        <mxCell id="aQXZlvpjPt8ZV1MpC3ru-14" value="Task 2&amp;nbsp;" style="rounded=1;whiteSpace=wrap;html=1;labelBackgroundColor=none;" vertex="1" parent="aQXZlvpjPt8ZV1MpC3ru-13">
          <mxGeometry y="-2.5" width="147" height="90" as="geometry" />
        </mxCell>
        <mxCell id="aQXZlvpjPt8ZV1MpC3ru-15" value="" style="endArrow=none;html=1;rounded=1;fontSize=12;startSize=8;endSize=8;curved=1;entryX=1;entryY=0.25;entryDx=0;entryDy=0;exitX=0;exitY=0.25;exitDx=0;exitDy=0;labelBackgroundColor=none;fontColor=default;" edge="1" parent="aQXZlvpjPt8ZV1MpC3ru-13" source="aQXZlvpjPt8ZV1MpC3ru-14" target="aQXZlvpjPt8ZV1MpC3ru-14">
          <mxGeometry width="50" height="50" relative="1" as="geometry">
            <mxPoint x="85.44827586206898" y="105.92307692307693" as="sourcePoint" />
            <mxPoint x="121.65517241379311" y="71.3076923076923" as="targetPoint" />
          </mxGeometry>
        </mxCell>
        <mxCell id="aQXZlvpjPt8ZV1MpC3ru-16" value="" style="endArrow=none;html=1;rounded=1;fontSize=12;startSize=8;endSize=8;curved=1;entryX=1;entryY=0.75;entryDx=0;entryDy=0;exitX=0;exitY=0.75;exitDx=0;exitDy=0;labelBackgroundColor=none;fontColor=default;" edge="1" parent="aQXZlvpjPt8ZV1MpC3ru-13" source="aQXZlvpjPt8ZV1MpC3ru-14" target="aQXZlvpjPt8ZV1MpC3ru-14">
          <mxGeometry width="50" height="50" relative="1" as="geometry">
            <mxPoint x="-1.4482758620689657" y="61.61538461538461" as="sourcePoint" />
            <mxPoint x="145.55172413793105" y="61.61538461538461" as="targetPoint" />
          </mxGeometry>
        </mxCell>
        <mxCell id="aQXZlvpjPt8ZV1MpC3ru-17" style="edgeStyle=none;curved=1;rounded=1;orthogonalLoop=1;jettySize=auto;html=1;exitX=0.5;exitY=1;exitDx=0;exitDy=0;fontSize=12;startSize=8;endSize=8;labelBackgroundColor=none;fontColor=default;" edge="1" parent="aQXZlvpjPt8ZV1MpC3ru-13" source="aQXZlvpjPt8ZV1MpC3ru-14" target="aQXZlvpjPt8ZV1MpC3ru-14">
          <mxGeometry relative="1" as="geometry" />
        </mxCell>
        <mxCell id="aQXZlvpjPt8ZV1MpC3ru-18" style="edgeStyle=none;curved=1;rounded=1;orthogonalLoop=1;jettySize=auto;html=1;exitX=0.5;exitY=1;exitDx=0;exitDy=0;fontSize=12;startSize=8;endSize=8;labelBackgroundColor=none;fontColor=default;" edge="1" parent="aQXZlvpjPt8ZV1MpC3ru-13" source="aQXZlvpjPt8ZV1MpC3ru-14" target="aQXZlvpjPt8ZV1MpC3ru-14">
          <mxGeometry relative="1" as="geometry" />
        </mxCell>
        <mxCell id="aQXZlvpjPt8ZV1MpC3ru-19" value="" style="endArrow=none;html=1;rounded=1;fontSize=12;startSize=8;endSize=8;curved=1;exitX=0.25;exitY=0;exitDx=0;exitDy=0;labelBackgroundColor=none;fontColor=default;" edge="1" parent="aQXZlvpjPt8ZV1MpC3ru-13" source="aQXZlvpjPt8ZV1MpC3ru-14">
          <mxGeometry width="50" height="50" relative="1" as="geometry">
            <mxPoint x="85.44827586206898" y="105.92307692307693" as="sourcePoint" />
            <mxPoint x="36.931034482758626" y="23.538461538461537" as="targetPoint" />
          </mxGeometry>
        </mxCell>
        <mxCell id="aQXZlvpjPt8ZV1MpC3ru-20" value="" style="endArrow=none;html=1;rounded=1;fontSize=12;startSize=8;endSize=8;curved=1;exitX=0.75;exitY=0;exitDx=0;exitDy=0;labelBackgroundColor=none;fontColor=default;" edge="1" parent="aQXZlvpjPt8ZV1MpC3ru-13" source="aQXZlvpjPt8ZV1MpC3ru-14">
          <mxGeometry width="50" height="50" relative="1" as="geometry">
            <mxPoint x="44.172413793103445" y="6.923076923076923" as="sourcePoint" />
            <mxPoint x="110.0689655172414" y="22.153846153846153" as="targetPoint" />
          </mxGeometry>
        </mxCell>
        <mxCell id="aQXZlvpjPt8ZV1MpC3ru-21" value="" style="endArrow=none;html=1;rounded=1;fontSize=12;startSize=8;endSize=8;curved=1;exitX=0.25;exitY=1;exitDx=0;exitDy=0;labelBackgroundColor=none;fontColor=default;" edge="1" parent="aQXZlvpjPt8ZV1MpC3ru-13" source="aQXZlvpjPt8ZV1MpC3ru-14">
          <mxGeometry width="50" height="50" relative="1" as="geometry">
            <mxPoint x="44.172413793103445" y="6.923076923076923" as="sourcePoint" />
            <mxPoint x="36.931034482758626" y="67.84615384615385" as="targetPoint" />
          </mxGeometry>
        </mxCell>
        <mxCell id="aQXZlvpjPt8ZV1MpC3ru-22" value="" style="endArrow=none;html=1;rounded=1;fontSize=12;startSize=8;endSize=8;curved=1;entryX=0.75;entryY=1;entryDx=0;entryDy=0;labelBackgroundColor=none;fontColor=default;" edge="1" parent="aQXZlvpjPt8ZV1MpC3ru-13" target="aQXZlvpjPt8ZV1MpC3ru-14">
          <mxGeometry width="50" height="50" relative="1" as="geometry">
            <mxPoint x="110.0689655172414" y="67.84615384615385" as="sourcePoint" />
            <mxPoint x="44.172413793103445" y="74.76923076923077" as="targetPoint" />
          </mxGeometry>
        </mxCell>
        <mxCell id="OHJZcfKmMhG8Tj6CGPZ6-2" value="3" style="text;strokeColor=none;fillColor=none;html=1;align=center;verticalAlign=middle;whiteSpace=wrap;rounded=1;fontSize=16;labelBackgroundColor=none;" vertex="1" parent="aQXZlvpjPt8ZV1MpC3ru-13">
          <mxGeometry x="42" y="-2.5" width="54.78260869565217" height="24.999999999999996" as="geometry" />
        </mxCell>
        <mxCell id="OHJZcfKmMhG8Tj6CGPZ6-78" value="0" style="text;strokeColor=none;fillColor=none;html=1;align=center;verticalAlign=middle;whiteSpace=wrap;rounded=1;fontSize=16;labelBackgroundColor=none;" vertex="1" parent="aQXZlvpjPt8ZV1MpC3ru-13">
          <mxGeometry x="-3.6521739130434785" y="-2.5" width="54.78260869565217" height="24.999999999999996" as="geometry" />
        </mxCell>
        <mxCell id="OHJZcfKmMhG8Tj6CGPZ6-79" value="2" style="text;strokeColor=none;fillColor=none;html=1;align=center;verticalAlign=middle;whiteSpace=wrap;rounded=1;fontSize=16;labelBackgroundColor=none;" vertex="1" parent="aQXZlvpjPt8ZV1MpC3ru-13">
          <mxGeometry x="46.108695652173914" y="65" width="54.78260869565217" height="24.999999999999996" as="geometry" />
        </mxCell>
        <mxCell id="OHJZcfKmMhG8Tj6CGPZ6-80" value="3" style="text;strokeColor=none;fillColor=none;html=1;align=center;verticalAlign=middle;whiteSpace=wrap;rounded=1;fontSize=16;labelBackgroundColor=none;" vertex="1" parent="aQXZlvpjPt8ZV1MpC3ru-13">
          <mxGeometry x="100.8913043478261" y="-2.5" width="54.78260869565217" height="24.999999999999996" as="geometry" />
        </mxCell>
        <mxCell id="OHJZcfKmMhG8Tj6CGPZ6-81" value="3" style="text;strokeColor=none;fillColor=none;html=1;align=center;verticalAlign=middle;whiteSpace=wrap;rounded=1;fontSize=16;labelBackgroundColor=none;" vertex="1" parent="aQXZlvpjPt8ZV1MpC3ru-13">
          <mxGeometry x="-8.673913043478262" y="65" width="54.78260869565217" height="24.999999999999996" as="geometry" />
        </mxCell>
        <mxCell id="OHJZcfKmMhG8Tj6CGPZ6-82" value="6" style="text;strokeColor=none;fillColor=none;html=1;align=center;verticalAlign=middle;whiteSpace=wrap;rounded=1;fontSize=16;labelBackgroundColor=none;" vertex="1" parent="aQXZlvpjPt8ZV1MpC3ru-13">
          <mxGeometry x="103.17391304347828" y="65" width="54.78260869565217" height="24.999999999999996" as="geometry" />
        </mxCell>
        <mxCell id="OHJZcfKmMhG8Tj6CGPZ6-417" style="edgeStyle=none;curved=1;rounded=1;orthogonalLoop=1;jettySize=auto;html=1;entryX=0.5;entryY=0;entryDx=0;entryDy=0;fontSize=12;startSize=8;endSize=8;exitX=0.987;exitY=0.683;exitDx=0;exitDy=0;exitPerimeter=0;labelBackgroundColor=none;fontColor=default;" edge="1" parent="1" source="aQXZlvpjPt8ZV1MpC3ru-1" target="OHJZcfKmMhG8Tj6CGPZ6-2">
          <mxGeometry relative="1" as="geometry">
            <mxPoint x="-703" y="101" as="sourcePoint" />
          </mxGeometry>
        </mxCell>
        <mxCell id="OHJZcfKmMhG8Tj6CGPZ6-418" style="edgeStyle=none;curved=1;rounded=1;orthogonalLoop=1;jettySize=auto;html=1;entryX=0.5;entryY=0;entryDx=0;entryDy=0;fontSize=12;startSize=8;endSize=8;exitX=1;exitY=0.5;exitDx=0;exitDy=0;labelBackgroundColor=none;fontColor=default;" edge="1" parent="1" source="aQXZlvpjPt8ZV1MpC3ru-1" target="OHJZcfKmMhG8Tj6CGPZ6-41">
          <mxGeometry relative="1" as="geometry" />
        </mxCell>
        <mxCell id="OHJZcfKmMhG8Tj6CGPZ6-419" style="edgeStyle=none;curved=1;rounded=1;orthogonalLoop=1;jettySize=auto;html=1;entryX=0.5;entryY=0;entryDx=0;entryDy=0;fontSize=12;startSize=8;endSize=8;exitX=1;exitY=0.25;exitDx=0;exitDy=0;labelBackgroundColor=none;fontColor=default;" edge="1" parent="1" source="aQXZlvpjPt8ZV1MpC3ru-1" target="OHJZcfKmMhG8Tj6CGPZ6-43">
          <mxGeometry relative="1" as="geometry" />
        </mxCell>
        <mxCell id="OHJZcfKmMhG8Tj6CGPZ6-420" style="edgeStyle=none;curved=1;rounded=1;orthogonalLoop=1;jettySize=auto;html=1;entryX=0;entryY=0.5;entryDx=0;entryDy=0;fontSize=12;startSize=8;endSize=8;labelBackgroundColor=none;fontColor=default;strokeColor=light-dark(#ff2600, #ededed);" edge="1" parent="1" source="IIMoWA1YYtscb8tn20ki-22" target="IIMoWA1YYtscb8tn20ki-72">
          <mxGeometry relative="1" as="geometry" />
        </mxCell>
        <mxCell id="OHJZcfKmMhG8Tj6CGPZ6-421" style="edgeStyle=none;curved=1;rounded=1;orthogonalLoop=1;jettySize=auto;html=1;exitX=0;exitY=1;exitDx=0;exitDy=0;entryX=0.5;entryY=0;entryDx=0;entryDy=0;fontSize=12;startSize=8;endSize=8;labelBackgroundColor=none;fontColor=default;" edge="1" parent="1" source="OHJZcfKmMhG8Tj6CGPZ6-380" target="OHJZcfKmMhG8Tj6CGPZ6-395">
          <mxGeometry relative="1" as="geometry" />
        </mxCell>
        <mxCell id="OHJZcfKmMhG8Tj6CGPZ6-422" style="edgeStyle=none;curved=1;rounded=1;orthogonalLoop=1;jettySize=auto;html=1;exitX=0.5;exitY=1;exitDx=0;exitDy=0;fontSize=12;startSize=8;endSize=8;labelBackgroundColor=none;fontColor=default;" edge="1" parent="1" source="OHJZcfKmMhG8Tj6CGPZ6-259" target="OHJZcfKmMhG8Tj6CGPZ6-45">
          <mxGeometry relative="1" as="geometry" />
        </mxCell>
        <mxCell id="OHJZcfKmMhG8Tj6CGPZ6-423" style="edgeStyle=none;curved=1;rounded=1;orthogonalLoop=1;jettySize=auto;html=1;exitX=0.5;exitY=1;exitDx=0;exitDy=0;entryX=0.5;entryY=0;entryDx=0;entryDy=0;fontSize=12;startSize=8;endSize=8;labelBackgroundColor=none;fontColor=default;" edge="1" parent="1" source="OHJZcfKmMhG8Tj6CGPZ6-87" target="OHJZcfKmMhG8Tj6CGPZ6-382">
          <mxGeometry relative="1" as="geometry" />
        </mxCell>
      </root>
    </mxGraphModel>
  </diagram>
</mxfile>
